%TF.GenerationSoftware,KiCad,Pcbnew,10.0.6-10.0.6~ubuntu24.04.1*%
%TF.CreationDate,2026-08-30T16:53:10+02:00*%
%TF.ProjectId,PD65W_Charger,50443635-575f-4436-9861-726765722e6b,rev?*%
%TF.SameCoordinates,Original*%
%TF.FileFunction,Legend,Top*%
%TF.FilePolarity,Positive*%
%FSLAX46Y46*%
G04 Gerber Fmt 4.6, Leading zero omitted, Abs format (unit mm)*
G04 Created by KiCad (PCBNEW 10.0.6-10.0.6~ubuntu24.04.1) date 2026-08-30 16:53:10*
%MOMM*%
%LPD*%
G01*
G04 APERTURE LIST*
%ADD10C,0.150000*%
%ADD11C,0.100000*%
%ADD12C,0.250000*%
%ADD13C,0.120000*%
%ADD14C,0.127000*%
%ADD15C,0.504000*%
G04 APERTURE END LIST*
D10*
X141399819Y-99353333D02*
X142114104Y-99353333D01*
X142114104Y-99353333D02*
X142256961Y-99400952D01*
X142256961Y-99400952D02*
X142352200Y-99496190D01*
X142352200Y-99496190D02*
X142399819Y-99639047D01*
X142399819Y-99639047D02*
X142399819Y-99734285D01*
X141399819Y-98972380D02*
X141399819Y-98353333D01*
X141399819Y-98353333D02*
X141780771Y-98686666D01*
X141780771Y-98686666D02*
X141780771Y-98543809D01*
X141780771Y-98543809D02*
X141828390Y-98448571D01*
X141828390Y-98448571D02*
X141876009Y-98400952D01*
X141876009Y-98400952D02*
X141971247Y-98353333D01*
X141971247Y-98353333D02*
X142209342Y-98353333D01*
X142209342Y-98353333D02*
X142304580Y-98400952D01*
X142304580Y-98400952D02*
X142352200Y-98448571D01*
X142352200Y-98448571D02*
X142399819Y-98543809D01*
X142399819Y-98543809D02*
X142399819Y-98829523D01*
X142399819Y-98829523D02*
X142352200Y-98924761D01*
X142352200Y-98924761D02*
X142304580Y-98972380D01*
X172833333Y-79054819D02*
X172500000Y-78578628D01*
X172261905Y-79054819D02*
X172261905Y-78054819D01*
X172261905Y-78054819D02*
X172642857Y-78054819D01*
X172642857Y-78054819D02*
X172738095Y-78102438D01*
X172738095Y-78102438D02*
X172785714Y-78150057D01*
X172785714Y-78150057D02*
X172833333Y-78245295D01*
X172833333Y-78245295D02*
X172833333Y-78388152D01*
X172833333Y-78388152D02*
X172785714Y-78483390D01*
X172785714Y-78483390D02*
X172738095Y-78531009D01*
X172738095Y-78531009D02*
X172642857Y-78578628D01*
X172642857Y-78578628D02*
X172261905Y-78578628D01*
X173214286Y-78150057D02*
X173261905Y-78102438D01*
X173261905Y-78102438D02*
X173357143Y-78054819D01*
X173357143Y-78054819D02*
X173595238Y-78054819D01*
X173595238Y-78054819D02*
X173690476Y-78102438D01*
X173690476Y-78102438D02*
X173738095Y-78150057D01*
X173738095Y-78150057D02*
X173785714Y-78245295D01*
X173785714Y-78245295D02*
X173785714Y-78340533D01*
X173785714Y-78340533D02*
X173738095Y-78483390D01*
X173738095Y-78483390D02*
X173166667Y-79054819D01*
X173166667Y-79054819D02*
X173785714Y-79054819D01*
X165959580Y-81966666D02*
X166007200Y-82014285D01*
X166007200Y-82014285D02*
X166054819Y-82157142D01*
X166054819Y-82157142D02*
X166054819Y-82252380D01*
X166054819Y-82252380D02*
X166007200Y-82395237D01*
X166007200Y-82395237D02*
X165911961Y-82490475D01*
X165911961Y-82490475D02*
X165816723Y-82538094D01*
X165816723Y-82538094D02*
X165626247Y-82585713D01*
X165626247Y-82585713D02*
X165483390Y-82585713D01*
X165483390Y-82585713D02*
X165292914Y-82538094D01*
X165292914Y-82538094D02*
X165197676Y-82490475D01*
X165197676Y-82490475D02*
X165102438Y-82395237D01*
X165102438Y-82395237D02*
X165054819Y-82252380D01*
X165054819Y-82252380D02*
X165054819Y-82157142D01*
X165054819Y-82157142D02*
X165102438Y-82014285D01*
X165102438Y-82014285D02*
X165150057Y-81966666D01*
X166054819Y-81014285D02*
X166054819Y-81585713D01*
X166054819Y-81299999D02*
X165054819Y-81299999D01*
X165054819Y-81299999D02*
X165197676Y-81395237D01*
X165197676Y-81395237D02*
X165292914Y-81490475D01*
X165292914Y-81490475D02*
X165340533Y-81585713D01*
X168133333Y-104654819D02*
X167800000Y-104178628D01*
X167561905Y-104654819D02*
X167561905Y-103654819D01*
X167561905Y-103654819D02*
X167942857Y-103654819D01*
X167942857Y-103654819D02*
X168038095Y-103702438D01*
X168038095Y-103702438D02*
X168085714Y-103750057D01*
X168085714Y-103750057D02*
X168133333Y-103845295D01*
X168133333Y-103845295D02*
X168133333Y-103988152D01*
X168133333Y-103988152D02*
X168085714Y-104083390D01*
X168085714Y-104083390D02*
X168038095Y-104131009D01*
X168038095Y-104131009D02*
X167942857Y-104178628D01*
X167942857Y-104178628D02*
X167561905Y-104178628D01*
X168990476Y-103988152D02*
X168990476Y-104654819D01*
X168752381Y-103607200D02*
X168514286Y-104321485D01*
X168514286Y-104321485D02*
X169133333Y-104321485D01*
X171859580Y-91416666D02*
X171907200Y-91464285D01*
X171907200Y-91464285D02*
X171954819Y-91607142D01*
X171954819Y-91607142D02*
X171954819Y-91702380D01*
X171954819Y-91702380D02*
X171907200Y-91845237D01*
X171907200Y-91845237D02*
X171811961Y-91940475D01*
X171811961Y-91940475D02*
X171716723Y-91988094D01*
X171716723Y-91988094D02*
X171526247Y-92035713D01*
X171526247Y-92035713D02*
X171383390Y-92035713D01*
X171383390Y-92035713D02*
X171192914Y-91988094D01*
X171192914Y-91988094D02*
X171097676Y-91940475D01*
X171097676Y-91940475D02*
X171002438Y-91845237D01*
X171002438Y-91845237D02*
X170954819Y-91702380D01*
X170954819Y-91702380D02*
X170954819Y-91607142D01*
X170954819Y-91607142D02*
X171002438Y-91464285D01*
X171002438Y-91464285D02*
X171050057Y-91416666D01*
X171050057Y-91035713D02*
X171002438Y-90988094D01*
X171002438Y-90988094D02*
X170954819Y-90892856D01*
X170954819Y-90892856D02*
X170954819Y-90654761D01*
X170954819Y-90654761D02*
X171002438Y-90559523D01*
X171002438Y-90559523D02*
X171050057Y-90511904D01*
X171050057Y-90511904D02*
X171145295Y-90464285D01*
X171145295Y-90464285D02*
X171240533Y-90464285D01*
X171240533Y-90464285D02*
X171383390Y-90511904D01*
X171383390Y-90511904D02*
X171954819Y-91083332D01*
X171954819Y-91083332D02*
X171954819Y-90464285D01*
X165433333Y-97084819D02*
X165100000Y-96608628D01*
X164861905Y-97084819D02*
X164861905Y-96084819D01*
X164861905Y-96084819D02*
X165242857Y-96084819D01*
X165242857Y-96084819D02*
X165338095Y-96132438D01*
X165338095Y-96132438D02*
X165385714Y-96180057D01*
X165385714Y-96180057D02*
X165433333Y-96275295D01*
X165433333Y-96275295D02*
X165433333Y-96418152D01*
X165433333Y-96418152D02*
X165385714Y-96513390D01*
X165385714Y-96513390D02*
X165338095Y-96561009D01*
X165338095Y-96561009D02*
X165242857Y-96608628D01*
X165242857Y-96608628D02*
X164861905Y-96608628D01*
X166338095Y-96084819D02*
X165861905Y-96084819D01*
X165861905Y-96084819D02*
X165814286Y-96561009D01*
X165814286Y-96561009D02*
X165861905Y-96513390D01*
X165861905Y-96513390D02*
X165957143Y-96465771D01*
X165957143Y-96465771D02*
X166195238Y-96465771D01*
X166195238Y-96465771D02*
X166290476Y-96513390D01*
X166290476Y-96513390D02*
X166338095Y-96561009D01*
X166338095Y-96561009D02*
X166385714Y-96656247D01*
X166385714Y-96656247D02*
X166385714Y-96894342D01*
X166385714Y-96894342D02*
X166338095Y-96989580D01*
X166338095Y-96989580D02*
X166290476Y-97037200D01*
X166290476Y-97037200D02*
X166195238Y-97084819D01*
X166195238Y-97084819D02*
X165957143Y-97084819D01*
X165957143Y-97084819D02*
X165861905Y-97037200D01*
X165861905Y-97037200D02*
X165814286Y-96989580D01*
D11*
X152647580Y-82910595D02*
X151838057Y-82910595D01*
X151838057Y-82910595D02*
X151742819Y-82958214D01*
X151742819Y-82958214D02*
X151695200Y-83005833D01*
X151695200Y-83005833D02*
X151647580Y-83101071D01*
X151647580Y-83101071D02*
X151647580Y-83291547D01*
X151647580Y-83291547D02*
X151695200Y-83386785D01*
X151695200Y-83386785D02*
X151742819Y-83434404D01*
X151742819Y-83434404D02*
X151838057Y-83482023D01*
X151838057Y-83482023D02*
X152647580Y-83482023D01*
X151647580Y-84482023D02*
X151647580Y-83910595D01*
X151647580Y-84196309D02*
X152647580Y-84196309D01*
X152647580Y-84196309D02*
X152504723Y-84101071D01*
X152504723Y-84101071D02*
X152409485Y-84005833D01*
X152409485Y-84005833D02*
X152361866Y-83910595D01*
D12*
X140640663Y-93980333D02*
X142164473Y-93980333D01*
X161019666Y-95540663D02*
X161019666Y-97064473D01*
X160257761Y-96302568D02*
X161781571Y-96302568D01*
D10*
X147661905Y-105254819D02*
X147661905Y-104254819D01*
X147661905Y-104254819D02*
X147900000Y-104254819D01*
X147900000Y-104254819D02*
X148042857Y-104302438D01*
X148042857Y-104302438D02*
X148138095Y-104397676D01*
X148138095Y-104397676D02*
X148185714Y-104492914D01*
X148185714Y-104492914D02*
X148233333Y-104683390D01*
X148233333Y-104683390D02*
X148233333Y-104826247D01*
X148233333Y-104826247D02*
X148185714Y-105016723D01*
X148185714Y-105016723D02*
X148138095Y-105111961D01*
X148138095Y-105111961D02*
X148042857Y-105207200D01*
X148042857Y-105207200D02*
X147900000Y-105254819D01*
X147900000Y-105254819D02*
X147661905Y-105254819D01*
X149185714Y-105254819D02*
X148614286Y-105254819D01*
X148900000Y-105254819D02*
X148900000Y-104254819D01*
X148900000Y-104254819D02*
X148804762Y-104397676D01*
X148804762Y-104397676D02*
X148709524Y-104492914D01*
X148709524Y-104492914D02*
X148614286Y-104540533D01*
X143938095Y-102854819D02*
X143938095Y-101854819D01*
X144509523Y-102854819D02*
X144080952Y-102283390D01*
X144509523Y-101854819D02*
X143938095Y-102426247D01*
X157854819Y-102466666D02*
X157378628Y-102799999D01*
X157854819Y-103038094D02*
X156854819Y-103038094D01*
X156854819Y-103038094D02*
X156854819Y-102657142D01*
X156854819Y-102657142D02*
X156902438Y-102561904D01*
X156902438Y-102561904D02*
X156950057Y-102514285D01*
X156950057Y-102514285D02*
X157045295Y-102466666D01*
X157045295Y-102466666D02*
X157188152Y-102466666D01*
X157188152Y-102466666D02*
X157283390Y-102514285D01*
X157283390Y-102514285D02*
X157331009Y-102561904D01*
X157331009Y-102561904D02*
X157378628Y-102657142D01*
X157378628Y-102657142D02*
X157378628Y-103038094D01*
X156854819Y-102133332D02*
X156854819Y-101466666D01*
X156854819Y-101466666D02*
X157854819Y-101895237D01*
X162804819Y-101361904D02*
X163614342Y-101361904D01*
X163614342Y-101361904D02*
X163709580Y-101314285D01*
X163709580Y-101314285D02*
X163757200Y-101266666D01*
X163757200Y-101266666D02*
X163804819Y-101171428D01*
X163804819Y-101171428D02*
X163804819Y-100980952D01*
X163804819Y-100980952D02*
X163757200Y-100885714D01*
X163757200Y-100885714D02*
X163709580Y-100838095D01*
X163709580Y-100838095D02*
X163614342Y-100790476D01*
X163614342Y-100790476D02*
X162804819Y-100790476D01*
X162804819Y-99838095D02*
X162804819Y-100314285D01*
X162804819Y-100314285D02*
X163281009Y-100361904D01*
X163281009Y-100361904D02*
X163233390Y-100314285D01*
X163233390Y-100314285D02*
X163185771Y-100219047D01*
X163185771Y-100219047D02*
X163185771Y-99980952D01*
X163185771Y-99980952D02*
X163233390Y-99885714D01*
X163233390Y-99885714D02*
X163281009Y-99838095D01*
X163281009Y-99838095D02*
X163376247Y-99790476D01*
X163376247Y-99790476D02*
X163614342Y-99790476D01*
X163614342Y-99790476D02*
X163709580Y-99838095D01*
X163709580Y-99838095D02*
X163757200Y-99885714D01*
X163757200Y-99885714D02*
X163804819Y-99980952D01*
X163804819Y-99980952D02*
X163804819Y-100219047D01*
X163804819Y-100219047D02*
X163757200Y-100314285D01*
X163757200Y-100314285D02*
X163709580Y-100361904D01*
X163314286Y-88674819D02*
X163885714Y-88674819D01*
X163600000Y-89674819D02*
X163600000Y-88674819D01*
X164219048Y-89674819D02*
X164219048Y-88674819D01*
X164219048Y-89151009D02*
X164790476Y-89151009D01*
X164790476Y-89674819D02*
X164790476Y-88674819D01*
X165219048Y-88770057D02*
X165266667Y-88722438D01*
X165266667Y-88722438D02*
X165361905Y-88674819D01*
X165361905Y-88674819D02*
X165600000Y-88674819D01*
X165600000Y-88674819D02*
X165695238Y-88722438D01*
X165695238Y-88722438D02*
X165742857Y-88770057D01*
X165742857Y-88770057D02*
X165790476Y-88865295D01*
X165790476Y-88865295D02*
X165790476Y-88960533D01*
X165790476Y-88960533D02*
X165742857Y-89103390D01*
X165742857Y-89103390D02*
X165171429Y-89674819D01*
X165171429Y-89674819D02*
X165790476Y-89674819D01*
X163033333Y-82659580D02*
X162985714Y-82707200D01*
X162985714Y-82707200D02*
X162842857Y-82754819D01*
X162842857Y-82754819D02*
X162747619Y-82754819D01*
X162747619Y-82754819D02*
X162604762Y-82707200D01*
X162604762Y-82707200D02*
X162509524Y-82611961D01*
X162509524Y-82611961D02*
X162461905Y-82516723D01*
X162461905Y-82516723D02*
X162414286Y-82326247D01*
X162414286Y-82326247D02*
X162414286Y-82183390D01*
X162414286Y-82183390D02*
X162461905Y-81992914D01*
X162461905Y-81992914D02*
X162509524Y-81897676D01*
X162509524Y-81897676D02*
X162604762Y-81802438D01*
X162604762Y-81802438D02*
X162747619Y-81754819D01*
X162747619Y-81754819D02*
X162842857Y-81754819D01*
X162842857Y-81754819D02*
X162985714Y-81802438D01*
X162985714Y-81802438D02*
X163033333Y-81850057D01*
X163366667Y-81754819D02*
X163985714Y-81754819D01*
X163985714Y-81754819D02*
X163652381Y-82135771D01*
X163652381Y-82135771D02*
X163795238Y-82135771D01*
X163795238Y-82135771D02*
X163890476Y-82183390D01*
X163890476Y-82183390D02*
X163938095Y-82231009D01*
X163938095Y-82231009D02*
X163985714Y-82326247D01*
X163985714Y-82326247D02*
X163985714Y-82564342D01*
X163985714Y-82564342D02*
X163938095Y-82659580D01*
X163938095Y-82659580D02*
X163890476Y-82707200D01*
X163890476Y-82707200D02*
X163795238Y-82754819D01*
X163795238Y-82754819D02*
X163509524Y-82754819D01*
X163509524Y-82754819D02*
X163414286Y-82707200D01*
X163414286Y-82707200D02*
X163366667Y-82659580D01*
X186488095Y-71964819D02*
X186488095Y-70964819D01*
X186488095Y-71441009D02*
X187059523Y-71441009D01*
X187059523Y-71964819D02*
X187059523Y-70964819D01*
X188059523Y-71964819D02*
X187488095Y-71964819D01*
X187773809Y-71964819D02*
X187773809Y-70964819D01*
X187773809Y-70964819D02*
X187678571Y-71107676D01*
X187678571Y-71107676D02*
X187583333Y-71202914D01*
X187583333Y-71202914D02*
X187488095Y-71250533D01*
X156070057Y-107075238D02*
X156022438Y-107170476D01*
X156022438Y-107170476D02*
X155927200Y-107265714D01*
X155927200Y-107265714D02*
X155784342Y-107408571D01*
X155784342Y-107408571D02*
X155736723Y-107503809D01*
X155736723Y-107503809D02*
X155736723Y-107599047D01*
X155974819Y-107551428D02*
X155927200Y-107646666D01*
X155927200Y-107646666D02*
X155831961Y-107741904D01*
X155831961Y-107741904D02*
X155641485Y-107789523D01*
X155641485Y-107789523D02*
X155308152Y-107789523D01*
X155308152Y-107789523D02*
X155117676Y-107741904D01*
X155117676Y-107741904D02*
X155022438Y-107646666D01*
X155022438Y-107646666D02*
X154974819Y-107551428D01*
X154974819Y-107551428D02*
X154974819Y-107360952D01*
X154974819Y-107360952D02*
X155022438Y-107265714D01*
X155022438Y-107265714D02*
X155117676Y-107170476D01*
X155117676Y-107170476D02*
X155308152Y-107122857D01*
X155308152Y-107122857D02*
X155641485Y-107122857D01*
X155641485Y-107122857D02*
X155831961Y-107170476D01*
X155831961Y-107170476D02*
X155927200Y-107265714D01*
X155927200Y-107265714D02*
X155974819Y-107360952D01*
X155974819Y-107360952D02*
X155974819Y-107551428D01*
X155974819Y-106170476D02*
X155974819Y-106741904D01*
X155974819Y-106456190D02*
X154974819Y-106456190D01*
X154974819Y-106456190D02*
X155117676Y-106551428D01*
X155117676Y-106551428D02*
X155212914Y-106646666D01*
X155212914Y-106646666D02*
X155260533Y-106741904D01*
X154433333Y-97204819D02*
X154100000Y-96728628D01*
X153861905Y-97204819D02*
X153861905Y-96204819D01*
X153861905Y-96204819D02*
X154242857Y-96204819D01*
X154242857Y-96204819D02*
X154338095Y-96252438D01*
X154338095Y-96252438D02*
X154385714Y-96300057D01*
X154385714Y-96300057D02*
X154433333Y-96395295D01*
X154433333Y-96395295D02*
X154433333Y-96538152D01*
X154433333Y-96538152D02*
X154385714Y-96633390D01*
X154385714Y-96633390D02*
X154338095Y-96681009D01*
X154338095Y-96681009D02*
X154242857Y-96728628D01*
X154242857Y-96728628D02*
X153861905Y-96728628D01*
X155290476Y-96204819D02*
X155100000Y-96204819D01*
X155100000Y-96204819D02*
X155004762Y-96252438D01*
X155004762Y-96252438D02*
X154957143Y-96300057D01*
X154957143Y-96300057D02*
X154861905Y-96442914D01*
X154861905Y-96442914D02*
X154814286Y-96633390D01*
X154814286Y-96633390D02*
X154814286Y-97014342D01*
X154814286Y-97014342D02*
X154861905Y-97109580D01*
X154861905Y-97109580D02*
X154909524Y-97157200D01*
X154909524Y-97157200D02*
X155004762Y-97204819D01*
X155004762Y-97204819D02*
X155195238Y-97204819D01*
X155195238Y-97204819D02*
X155290476Y-97157200D01*
X155290476Y-97157200D02*
X155338095Y-97109580D01*
X155338095Y-97109580D02*
X155385714Y-97014342D01*
X155385714Y-97014342D02*
X155385714Y-96776247D01*
X155385714Y-96776247D02*
X155338095Y-96681009D01*
X155338095Y-96681009D02*
X155290476Y-96633390D01*
X155290476Y-96633390D02*
X155195238Y-96585771D01*
X155195238Y-96585771D02*
X155004762Y-96585771D01*
X155004762Y-96585771D02*
X154909524Y-96633390D01*
X154909524Y-96633390D02*
X154861905Y-96681009D01*
X154861905Y-96681009D02*
X154814286Y-96776247D01*
X168359580Y-88366666D02*
X168407200Y-88414285D01*
X168407200Y-88414285D02*
X168454819Y-88557142D01*
X168454819Y-88557142D02*
X168454819Y-88652380D01*
X168454819Y-88652380D02*
X168407200Y-88795237D01*
X168407200Y-88795237D02*
X168311961Y-88890475D01*
X168311961Y-88890475D02*
X168216723Y-88938094D01*
X168216723Y-88938094D02*
X168026247Y-88985713D01*
X168026247Y-88985713D02*
X167883390Y-88985713D01*
X167883390Y-88985713D02*
X167692914Y-88938094D01*
X167692914Y-88938094D02*
X167597676Y-88890475D01*
X167597676Y-88890475D02*
X167502438Y-88795237D01*
X167502438Y-88795237D02*
X167454819Y-88652380D01*
X167454819Y-88652380D02*
X167454819Y-88557142D01*
X167454819Y-88557142D02*
X167502438Y-88414285D01*
X167502438Y-88414285D02*
X167550057Y-88366666D01*
X167454819Y-87509523D02*
X167454819Y-87699999D01*
X167454819Y-87699999D02*
X167502438Y-87795237D01*
X167502438Y-87795237D02*
X167550057Y-87842856D01*
X167550057Y-87842856D02*
X167692914Y-87938094D01*
X167692914Y-87938094D02*
X167883390Y-87985713D01*
X167883390Y-87985713D02*
X168264342Y-87985713D01*
X168264342Y-87985713D02*
X168359580Y-87938094D01*
X168359580Y-87938094D02*
X168407200Y-87890475D01*
X168407200Y-87890475D02*
X168454819Y-87795237D01*
X168454819Y-87795237D02*
X168454819Y-87604761D01*
X168454819Y-87604761D02*
X168407200Y-87509523D01*
X168407200Y-87509523D02*
X168359580Y-87461904D01*
X168359580Y-87461904D02*
X168264342Y-87414285D01*
X168264342Y-87414285D02*
X168026247Y-87414285D01*
X168026247Y-87414285D02*
X167931009Y-87461904D01*
X167931009Y-87461904D02*
X167883390Y-87509523D01*
X167883390Y-87509523D02*
X167835771Y-87604761D01*
X167835771Y-87604761D02*
X167835771Y-87795237D01*
X167835771Y-87795237D02*
X167883390Y-87890475D01*
X167883390Y-87890475D02*
X167931009Y-87938094D01*
X167931009Y-87938094D02*
X168026247Y-87985713D01*
X163638095Y-112554819D02*
X163638095Y-113364342D01*
X163638095Y-113364342D02*
X163685714Y-113459580D01*
X163685714Y-113459580D02*
X163733333Y-113507200D01*
X163733333Y-113507200D02*
X163828571Y-113554819D01*
X163828571Y-113554819D02*
X164019047Y-113554819D01*
X164019047Y-113554819D02*
X164114285Y-113507200D01*
X164114285Y-113507200D02*
X164161904Y-113459580D01*
X164161904Y-113459580D02*
X164209523Y-113364342D01*
X164209523Y-113364342D02*
X164209523Y-112554819D01*
X164638095Y-112650057D02*
X164685714Y-112602438D01*
X164685714Y-112602438D02*
X164780952Y-112554819D01*
X164780952Y-112554819D02*
X165019047Y-112554819D01*
X165019047Y-112554819D02*
X165114285Y-112602438D01*
X165114285Y-112602438D02*
X165161904Y-112650057D01*
X165161904Y-112650057D02*
X165209523Y-112745295D01*
X165209523Y-112745295D02*
X165209523Y-112840533D01*
X165209523Y-112840533D02*
X165161904Y-112983390D01*
X165161904Y-112983390D02*
X164590476Y-113554819D01*
X164590476Y-113554819D02*
X165209523Y-113554819D01*
X168959580Y-102366666D02*
X169007200Y-102414285D01*
X169007200Y-102414285D02*
X169054819Y-102557142D01*
X169054819Y-102557142D02*
X169054819Y-102652380D01*
X169054819Y-102652380D02*
X169007200Y-102795237D01*
X169007200Y-102795237D02*
X168911961Y-102890475D01*
X168911961Y-102890475D02*
X168816723Y-102938094D01*
X168816723Y-102938094D02*
X168626247Y-102985713D01*
X168626247Y-102985713D02*
X168483390Y-102985713D01*
X168483390Y-102985713D02*
X168292914Y-102938094D01*
X168292914Y-102938094D02*
X168197676Y-102890475D01*
X168197676Y-102890475D02*
X168102438Y-102795237D01*
X168102438Y-102795237D02*
X168054819Y-102652380D01*
X168054819Y-102652380D02*
X168054819Y-102557142D01*
X168054819Y-102557142D02*
X168102438Y-102414285D01*
X168102438Y-102414285D02*
X168150057Y-102366666D01*
X168388152Y-101509523D02*
X169054819Y-101509523D01*
X168007200Y-101747618D02*
X168721485Y-101985713D01*
X168721485Y-101985713D02*
X168721485Y-101366666D01*
X171854819Y-83361904D02*
X172664342Y-83361904D01*
X172664342Y-83361904D02*
X172759580Y-83314285D01*
X172759580Y-83314285D02*
X172807200Y-83266666D01*
X172807200Y-83266666D02*
X172854819Y-83171428D01*
X172854819Y-83171428D02*
X172854819Y-82980952D01*
X172854819Y-82980952D02*
X172807200Y-82885714D01*
X172807200Y-82885714D02*
X172759580Y-82838095D01*
X172759580Y-82838095D02*
X172664342Y-82790476D01*
X172664342Y-82790476D02*
X171854819Y-82790476D01*
X172188152Y-81885714D02*
X172854819Y-81885714D01*
X171807200Y-82123809D02*
X172521485Y-82361904D01*
X172521485Y-82361904D02*
X172521485Y-81742857D01*
X183266666Y-78412319D02*
X183266666Y-79126604D01*
X183266666Y-79126604D02*
X183219047Y-79269461D01*
X183219047Y-79269461D02*
X183123809Y-79364700D01*
X183123809Y-79364700D02*
X182980952Y-79412319D01*
X182980952Y-79412319D02*
X182885714Y-79412319D01*
X184266666Y-79412319D02*
X183695238Y-79412319D01*
X183980952Y-79412319D02*
X183980952Y-78412319D01*
X183980952Y-78412319D02*
X183885714Y-78555176D01*
X183885714Y-78555176D02*
X183790476Y-78650414D01*
X183790476Y-78650414D02*
X183695238Y-78698033D01*
D11*
X180190476Y-102864895D02*
X180190476Y-103512514D01*
X180190476Y-103512514D02*
X180228571Y-103588704D01*
X180228571Y-103588704D02*
X180266666Y-103626800D01*
X180266666Y-103626800D02*
X180342857Y-103664895D01*
X180342857Y-103664895D02*
X180495238Y-103664895D01*
X180495238Y-103664895D02*
X180571428Y-103626800D01*
X180571428Y-103626800D02*
X180609523Y-103588704D01*
X180609523Y-103588704D02*
X180647619Y-103512514D01*
X180647619Y-103512514D02*
X180647619Y-102864895D01*
X180952380Y-102864895D02*
X181447618Y-102864895D01*
X181447618Y-102864895D02*
X181180952Y-103169657D01*
X181180952Y-103169657D02*
X181295237Y-103169657D01*
X181295237Y-103169657D02*
X181371428Y-103207752D01*
X181371428Y-103207752D02*
X181409523Y-103245847D01*
X181409523Y-103245847D02*
X181447618Y-103322038D01*
X181447618Y-103322038D02*
X181447618Y-103512514D01*
X181447618Y-103512514D02*
X181409523Y-103588704D01*
X181409523Y-103588704D02*
X181371428Y-103626800D01*
X181371428Y-103626800D02*
X181295237Y-103664895D01*
X181295237Y-103664895D02*
X181066666Y-103664895D01*
X181066666Y-103664895D02*
X180990475Y-103626800D01*
X180990475Y-103626800D02*
X180952380Y-103588704D01*
D10*
X172054819Y-75766666D02*
X172054819Y-76242856D01*
X172054819Y-76242856D02*
X171054819Y-76242856D01*
X172054819Y-74909523D02*
X172054819Y-75480951D01*
X172054819Y-75195237D02*
X171054819Y-75195237D01*
X171054819Y-75195237D02*
X171197676Y-75290475D01*
X171197676Y-75290475D02*
X171292914Y-75385713D01*
X171292914Y-75385713D02*
X171340533Y-75480951D01*
X160033333Y-114104819D02*
X159700000Y-113628628D01*
X159461905Y-114104819D02*
X159461905Y-113104819D01*
X159461905Y-113104819D02*
X159842857Y-113104819D01*
X159842857Y-113104819D02*
X159938095Y-113152438D01*
X159938095Y-113152438D02*
X159985714Y-113200057D01*
X159985714Y-113200057D02*
X160033333Y-113295295D01*
X160033333Y-113295295D02*
X160033333Y-113438152D01*
X160033333Y-113438152D02*
X159985714Y-113533390D01*
X159985714Y-113533390D02*
X159938095Y-113581009D01*
X159938095Y-113581009D02*
X159842857Y-113628628D01*
X159842857Y-113628628D02*
X159461905Y-113628628D01*
X160604762Y-113533390D02*
X160509524Y-113485771D01*
X160509524Y-113485771D02*
X160461905Y-113438152D01*
X160461905Y-113438152D02*
X160414286Y-113342914D01*
X160414286Y-113342914D02*
X160414286Y-113295295D01*
X160414286Y-113295295D02*
X160461905Y-113200057D01*
X160461905Y-113200057D02*
X160509524Y-113152438D01*
X160509524Y-113152438D02*
X160604762Y-113104819D01*
X160604762Y-113104819D02*
X160795238Y-113104819D01*
X160795238Y-113104819D02*
X160890476Y-113152438D01*
X160890476Y-113152438D02*
X160938095Y-113200057D01*
X160938095Y-113200057D02*
X160985714Y-113295295D01*
X160985714Y-113295295D02*
X160985714Y-113342914D01*
X160985714Y-113342914D02*
X160938095Y-113438152D01*
X160938095Y-113438152D02*
X160890476Y-113485771D01*
X160890476Y-113485771D02*
X160795238Y-113533390D01*
X160795238Y-113533390D02*
X160604762Y-113533390D01*
X160604762Y-113533390D02*
X160509524Y-113581009D01*
X160509524Y-113581009D02*
X160461905Y-113628628D01*
X160461905Y-113628628D02*
X160414286Y-113723866D01*
X160414286Y-113723866D02*
X160414286Y-113914342D01*
X160414286Y-113914342D02*
X160461905Y-114009580D01*
X160461905Y-114009580D02*
X160509524Y-114057200D01*
X160509524Y-114057200D02*
X160604762Y-114104819D01*
X160604762Y-114104819D02*
X160795238Y-114104819D01*
X160795238Y-114104819D02*
X160890476Y-114057200D01*
X160890476Y-114057200D02*
X160938095Y-114009580D01*
X160938095Y-114009580D02*
X160985714Y-113914342D01*
X160985714Y-113914342D02*
X160985714Y-113723866D01*
X160985714Y-113723866D02*
X160938095Y-113628628D01*
X160938095Y-113628628D02*
X160890476Y-113581009D01*
X160890476Y-113581009D02*
X160795238Y-113533390D01*
X160059580Y-102666666D02*
X160107200Y-102714285D01*
X160107200Y-102714285D02*
X160154819Y-102857142D01*
X160154819Y-102857142D02*
X160154819Y-102952380D01*
X160154819Y-102952380D02*
X160107200Y-103095237D01*
X160107200Y-103095237D02*
X160011961Y-103190475D01*
X160011961Y-103190475D02*
X159916723Y-103238094D01*
X159916723Y-103238094D02*
X159726247Y-103285713D01*
X159726247Y-103285713D02*
X159583390Y-103285713D01*
X159583390Y-103285713D02*
X159392914Y-103238094D01*
X159392914Y-103238094D02*
X159297676Y-103190475D01*
X159297676Y-103190475D02*
X159202438Y-103095237D01*
X159202438Y-103095237D02*
X159154819Y-102952380D01*
X159154819Y-102952380D02*
X159154819Y-102857142D01*
X159154819Y-102857142D02*
X159202438Y-102714285D01*
X159202438Y-102714285D02*
X159250057Y-102666666D01*
X159154819Y-101761904D02*
X159154819Y-102238094D01*
X159154819Y-102238094D02*
X159631009Y-102285713D01*
X159631009Y-102285713D02*
X159583390Y-102238094D01*
X159583390Y-102238094D02*
X159535771Y-102142856D01*
X159535771Y-102142856D02*
X159535771Y-101904761D01*
X159535771Y-101904761D02*
X159583390Y-101809523D01*
X159583390Y-101809523D02*
X159631009Y-101761904D01*
X159631009Y-101761904D02*
X159726247Y-101714285D01*
X159726247Y-101714285D02*
X159964342Y-101714285D01*
X159964342Y-101714285D02*
X160059580Y-101761904D01*
X160059580Y-101761904D02*
X160107200Y-101809523D01*
X160107200Y-101809523D02*
X160154819Y-101904761D01*
X160154819Y-101904761D02*
X160154819Y-102142856D01*
X160154819Y-102142856D02*
X160107200Y-102238094D01*
X160107200Y-102238094D02*
X160059580Y-102285713D01*
X147754819Y-98433333D02*
X148469104Y-98433333D01*
X148469104Y-98433333D02*
X148611961Y-98480952D01*
X148611961Y-98480952D02*
X148707200Y-98576190D01*
X148707200Y-98576190D02*
X148754819Y-98719047D01*
X148754819Y-98719047D02*
X148754819Y-98814285D01*
X147850057Y-98004761D02*
X147802438Y-97957142D01*
X147802438Y-97957142D02*
X147754819Y-97861904D01*
X147754819Y-97861904D02*
X147754819Y-97623809D01*
X147754819Y-97623809D02*
X147802438Y-97528571D01*
X147802438Y-97528571D02*
X147850057Y-97480952D01*
X147850057Y-97480952D02*
X147945295Y-97433333D01*
X147945295Y-97433333D02*
X148040533Y-97433333D01*
X148040533Y-97433333D02*
X148183390Y-97480952D01*
X148183390Y-97480952D02*
X148754819Y-98052380D01*
X148754819Y-98052380D02*
X148754819Y-97433333D01*
X174444286Y-72734819D02*
X175015714Y-72734819D01*
X174730000Y-73734819D02*
X174730000Y-72734819D01*
X175349048Y-73734819D02*
X175349048Y-72734819D01*
X175349048Y-73211009D02*
X175920476Y-73211009D01*
X175920476Y-73734819D02*
X175920476Y-72734819D01*
X176920476Y-73734819D02*
X176349048Y-73734819D01*
X176634762Y-73734819D02*
X176634762Y-72734819D01*
X176634762Y-72734819D02*
X176539524Y-72877676D01*
X176539524Y-72877676D02*
X176444286Y-72972914D01*
X176444286Y-72972914D02*
X176349048Y-73020533D01*
X157554819Y-106966666D02*
X157078628Y-107299999D01*
X157554819Y-107538094D02*
X156554819Y-107538094D01*
X156554819Y-107538094D02*
X156554819Y-107157142D01*
X156554819Y-107157142D02*
X156602438Y-107061904D01*
X156602438Y-107061904D02*
X156650057Y-107014285D01*
X156650057Y-107014285D02*
X156745295Y-106966666D01*
X156745295Y-106966666D02*
X156888152Y-106966666D01*
X156888152Y-106966666D02*
X156983390Y-107014285D01*
X156983390Y-107014285D02*
X157031009Y-107061904D01*
X157031009Y-107061904D02*
X157078628Y-107157142D01*
X157078628Y-107157142D02*
X157078628Y-107538094D01*
X157554819Y-106490475D02*
X157554819Y-106299999D01*
X157554819Y-106299999D02*
X157507200Y-106204761D01*
X157507200Y-106204761D02*
X157459580Y-106157142D01*
X157459580Y-106157142D02*
X157316723Y-106061904D01*
X157316723Y-106061904D02*
X157126247Y-106014285D01*
X157126247Y-106014285D02*
X156745295Y-106014285D01*
X156745295Y-106014285D02*
X156650057Y-106061904D01*
X156650057Y-106061904D02*
X156602438Y-106109523D01*
X156602438Y-106109523D02*
X156554819Y-106204761D01*
X156554819Y-106204761D02*
X156554819Y-106395237D01*
X156554819Y-106395237D02*
X156602438Y-106490475D01*
X156602438Y-106490475D02*
X156650057Y-106538094D01*
X156650057Y-106538094D02*
X156745295Y-106585713D01*
X156745295Y-106585713D02*
X156983390Y-106585713D01*
X156983390Y-106585713D02*
X157078628Y-106538094D01*
X157078628Y-106538094D02*
X157126247Y-106490475D01*
X157126247Y-106490475D02*
X157173866Y-106395237D01*
X157173866Y-106395237D02*
X157173866Y-106204761D01*
X157173866Y-106204761D02*
X157126247Y-106109523D01*
X157126247Y-106109523D02*
X157078628Y-106061904D01*
X157078628Y-106061904D02*
X156983390Y-106014285D01*
X165654819Y-106466666D02*
X165178628Y-106799999D01*
X165654819Y-107038094D02*
X164654819Y-107038094D01*
X164654819Y-107038094D02*
X164654819Y-106657142D01*
X164654819Y-106657142D02*
X164702438Y-106561904D01*
X164702438Y-106561904D02*
X164750057Y-106514285D01*
X164750057Y-106514285D02*
X164845295Y-106466666D01*
X164845295Y-106466666D02*
X164988152Y-106466666D01*
X164988152Y-106466666D02*
X165083390Y-106514285D01*
X165083390Y-106514285D02*
X165131009Y-106561904D01*
X165131009Y-106561904D02*
X165178628Y-106657142D01*
X165178628Y-106657142D02*
X165178628Y-107038094D01*
X164654819Y-106133332D02*
X164654819Y-105514285D01*
X164654819Y-105514285D02*
X165035771Y-105847618D01*
X165035771Y-105847618D02*
X165035771Y-105704761D01*
X165035771Y-105704761D02*
X165083390Y-105609523D01*
X165083390Y-105609523D02*
X165131009Y-105561904D01*
X165131009Y-105561904D02*
X165226247Y-105514285D01*
X165226247Y-105514285D02*
X165464342Y-105514285D01*
X165464342Y-105514285D02*
X165559580Y-105561904D01*
X165559580Y-105561904D02*
X165607200Y-105609523D01*
X165607200Y-105609523D02*
X165654819Y-105704761D01*
X165654819Y-105704761D02*
X165654819Y-105990475D01*
X165654819Y-105990475D02*
X165607200Y-106085713D01*
X165607200Y-106085713D02*
X165559580Y-106133332D01*
%TO.C,J3*%
D13*
X142590000Y-100400000D02*
X142590000Y-99020000D01*
X143970000Y-100400000D02*
X142590000Y-100400000D01*
X145240000Y-97640000D02*
X147890000Y-97640000D01*
X145240000Y-100400000D02*
X145240000Y-97640000D01*
X145240000Y-100400000D02*
X147890000Y-100400000D01*
X147890000Y-100400000D02*
X147890000Y-97640000D01*
%TO.C,R2*%
X173772936Y-79265000D02*
X174227064Y-79265000D01*
X173772936Y-80735000D02*
X174227064Y-80735000D01*
%TO.C,C1*%
X166515000Y-82011252D02*
X166515000Y-81488748D01*
X167985000Y-82011252D02*
X167985000Y-81488748D01*
%TO.C,R4*%
X167865000Y-106572936D02*
X167865000Y-107027064D01*
X169335000Y-106572936D02*
X169335000Y-107027064D01*
%TO.C,C2*%
X170765000Y-88511252D02*
X170765000Y-87988748D01*
X172235000Y-88511252D02*
X172235000Y-87988748D01*
%TO.C,R5*%
X167777064Y-92290000D02*
X163422936Y-92290000D01*
X167777064Y-95710000D02*
X163422936Y-95710000D01*
%TO.C,U1*%
D12*
X151605000Y-71572500D02*
X151605000Y-73422500D01*
D11*
X142505000Y-71572500D02*
X160705000Y-71572500D01*
X160705000Y-95772500D01*
X142505000Y-95772500D01*
X142505000Y-71572500D01*
%TO.C,D1*%
D13*
X147090000Y-100930000D02*
X152530000Y-100930000D01*
X147090000Y-101060000D02*
X147090000Y-100930000D01*
X147090000Y-103740000D02*
X147090000Y-103870000D01*
X147090000Y-103870000D02*
X152530000Y-103870000D01*
X147870000Y-100930000D02*
X147870000Y-103870000D01*
X147990000Y-100930000D02*
X147990000Y-103870000D01*
X148110000Y-100930000D02*
X148110000Y-103870000D01*
X152530000Y-100930000D02*
X152530000Y-101060000D01*
X152530000Y-103870000D02*
X152530000Y-103740000D01*
%TO.C,R7*%
X156865000Y-99172936D02*
X156865000Y-99627064D01*
X158335000Y-99172936D02*
X158335000Y-99627064D01*
%TO.C,U5*%
X164190000Y-98990000D02*
X164390000Y-98990000D01*
X164190000Y-102210000D02*
X164190000Y-98990000D01*
X164390000Y-102210000D02*
X164190000Y-102210000D01*
X167210000Y-98990000D02*
X167410000Y-98990000D01*
X167410000Y-98990000D02*
X167410000Y-102210000D01*
X167410000Y-102210000D02*
X167210000Y-102210000D01*
X164390000Y-102760000D02*
X164060000Y-103000000D01*
X164060000Y-102520000D01*
X164390000Y-102760000D01*
G36*
X164390000Y-102760000D02*
G01*
X164060000Y-103000000D01*
X164060000Y-102520000D01*
X164390000Y-102760000D01*
G37*
%TO.C,TH2*%
X164086728Y-85580000D02*
G75*
G02*
X164086728Y-87420000I1453272J-920000D01*
G01*
%TO.C,C3*%
X162938748Y-79865000D02*
X163461252Y-79865000D01*
X162938748Y-81335000D02*
X163461252Y-81335000D01*
%TO.C,Q1*%
X154620000Y-108800000D02*
X154620000Y-105200000D01*
X150170000Y-107000000D02*
G75*
G02*
X154608478Y-105161522I2600000J0D01*
G01*
X154608478Y-108838478D02*
G75*
G02*
X150169999Y-107000000I-1838478J1838478D01*
G01*
%TO.C,R6*%
X154372936Y-97665000D02*
X154827064Y-97665000D01*
X154372936Y-99135000D02*
X154827064Y-99135000D01*
%TO.C,C6*%
X168765000Y-88511252D02*
X168765000Y-87988748D01*
X170235000Y-88511252D02*
X170235000Y-87988748D01*
%TO.C,U2*%
X168000000Y-109420000D02*
X169380000Y-109420000D01*
X169380000Y-110800000D02*
X169380000Y-109420000D01*
X158190000Y-74300000D02*
X169500000Y-74300000D01*
X169500000Y-112300000D01*
X158190000Y-112300000D01*
X158190000Y-74300000D01*
%TO.C,C4*%
X167865000Y-99623752D02*
X167865000Y-99101248D01*
X169335000Y-99623752D02*
X169335000Y-99101248D01*
%TO.C,U4*%
X168490000Y-82670000D02*
X168490000Y-81870000D01*
X168490000Y-82670000D02*
X168490000Y-83470000D01*
X171560000Y-83630000D02*
X171560000Y-81870000D01*
X168540000Y-83970000D02*
X168210000Y-84210000D01*
X168210000Y-83730000D01*
X168540000Y-83970000D01*
G36*
X168540000Y-83970000D02*
G01*
X168210000Y-84210000D01*
X168210000Y-83730000D01*
X168540000Y-83970000D01*
G37*
%TO.C,J1*%
X175900000Y-88457500D02*
X175900000Y-89507500D01*
X176100000Y-80107500D02*
X178000000Y-80107500D01*
X176100000Y-82807500D02*
X176100000Y-80107500D01*
X176100000Y-89307500D02*
X176100000Y-86707500D01*
X176950000Y-89507500D02*
X175900000Y-89507500D01*
X182000000Y-80107500D02*
X190800000Y-80107500D01*
X190800000Y-80107500D02*
X190800000Y-89307500D01*
X190800000Y-89307500D02*
X176100000Y-89307500D01*
%TO.C,U3*%
D14*
X170126000Y-97395000D02*
X170126000Y-111365000D01*
X172031000Y-95490000D02*
X189176000Y-95490000D01*
X172031000Y-113270000D02*
X189176000Y-113270000D01*
X191081000Y-99885000D02*
X191991272Y-99888728D01*
D11*
X191081000Y-111365000D02*
X191081000Y-97395000D01*
D14*
X191081000Y-111365000D02*
X191081000Y-97395000D01*
X191991000Y-108884000D02*
X191081000Y-108884000D01*
X192491000Y-100388728D02*
X192491000Y-108384000D01*
X170126000Y-97395000D02*
G75*
G02*
X172031000Y-95490000I1905001J-1D01*
G01*
X172031000Y-113270000D02*
G75*
G02*
X170126000Y-111365000I0J1905000D01*
G01*
X189176000Y-95490000D02*
G75*
G02*
X191081000Y-97395000I-1J-1905001D01*
G01*
X191081000Y-111365000D02*
G75*
G02*
X189176000Y-113270000I-1905000J0D01*
G01*
X191991272Y-99888728D02*
G75*
G02*
X192490999Y-100388728I-291J-500018D01*
G01*
X192491000Y-108384000D02*
G75*
G02*
X191991000Y-108884000I-500000J0D01*
G01*
D15*
X190212000Y-96573000D02*
G75*
G02*
X189708000Y-96573000I-252000J0D01*
G01*
X189708000Y-96573000D02*
G75*
G02*
X190212000Y-96573000I252000J0D01*
G01*
X191092000Y-95430000D02*
G75*
G02*
X190588000Y-95430000I-252000J0D01*
G01*
X190588000Y-95430000D02*
G75*
G02*
X191092000Y-95430000I252000J0D01*
G01*
%TO.C,L1*%
D13*
X163950000Y-72800000D02*
X170550000Y-72800000D01*
X163950000Y-74500000D02*
X163950000Y-72800000D01*
X163950000Y-79200000D02*
X163950000Y-77500000D01*
X170550000Y-72800000D02*
X170550000Y-74500000D01*
X170550000Y-77500000D02*
X170550000Y-79200000D01*
X170550000Y-79200000D02*
X163950000Y-79200000D01*
%TO.C,R8*%
X157427064Y-112865000D02*
X156972936Y-112865000D01*
X157427064Y-114335000D02*
X156972936Y-114335000D01*
%TO.C,C5*%
X158865000Y-99138748D02*
X158865000Y-99661252D01*
X160335000Y-99138748D02*
X160335000Y-99661252D01*
%TO.C,TH1*%
X175913272Y-76920000D02*
G75*
G02*
X175913272Y-75080000I-1453272J920000D01*
G01*
%TO.C,R9*%
X156265000Y-109572936D02*
X156265000Y-110027064D01*
X157735000Y-109572936D02*
X157735000Y-110027064D01*
%TO.C,R3*%
X165965000Y-106572936D02*
X165965000Y-107027064D01*
X167435000Y-106572936D02*
X167435000Y-107027064D01*
%TD*%
M02*
