ISO-10303-21;
HEADER;
/* Generated by software containing ST-Developer
 * from STEP Tools, Inc. (www.steptools.com) 
 */

FILE_DESCRIPTION(
/* description */ (''),
/* implementation_level */ '2;1');

FILE_NAME(
/* name */ 'CASE_lid.step',
/* time_stamp */ '2026-08-31T09:35:34+02:00',
/* author */ (''),
/* organization */ (''),
/* preprocessor_version */ 'ST-DEVELOPER v20.1',
/* originating_system */ 'Autodesk Translation Framework v15.8.0.0',
/* authorisation */ '');

FILE_SCHEMA (('AUTOMOTIVE_DESIGN { 1 0 10303 214 3 1 1 }'));
ENDSEC;

DATA;
#10=MECHANICAL_DESIGN_GEOMETRIC_PRESENTATION_REPRESENTATION('',(#13),#1724);
#11=SHAPE_REPRESENTATION_RELATIONSHIP('SRR','None',#1730,#12);
#12=ADVANCED_BREP_SHAPE_REPRESENTATION('',(#14),#1723);
#13=STYLED_ITEM('',(#1740),#14);
#14=MANIFOLD_SOLID_BREP('Lid',#1028);
#15=FACE_BOUND('',#156,.T.);
#16=FACE_BOUND('',#190,.T.);
#17=CYLINDRICAL_SURFACE('',#1057,2.00999999999982);
#18=CYLINDRICAL_SURFACE('',#1060,2.412);
#19=CYLINDRICAL_SURFACE('',#1062,2.40626495565117);
#20=CYLINDRICAL_SURFACE('',#1069,2.40626495565116);
#21=CYLINDRICAL_SURFACE('',#1077,2.09999999999996);
#22=CYLINDRICAL_SURFACE('',#1081,2.09999999999998);
#23=CYLINDRICAL_SURFACE('',#1102,2.61299999999979);
#24=CYLINDRICAL_SURFACE('',#1105,1.60799999998377);
#25=CYLINDRICAL_SURFACE('',#1107,1.60800000000006);
#26=CYLINDRICAL_SURFACE('',#1110,1.60799999999979);
#27=CYLINDRICAL_SURFACE('',#1113,1.60800000000005);
#28=CYLINDRICAL_SURFACE('',#1116,1.60800000000011);
#29=CYLINDRICAL_SURFACE('',#1118,2.412);
#30=CYLINDRICAL_SURFACE('',#1120,2.41199999999995);
#31=CYLINDRICAL_SURFACE('',#1121,2.412);
#32=CYLINDRICAL_SURFACE('',#1123,2.412);
#33=ELLIPSE('',#1043,3.40297253494499,2.40626495565117);
#34=ELLIPSE('',#1044,3.40297253494498,2.40626495565116);
#35=CIRCLE('',#1032,1.212);
#36=CIRCLE('',#1033,2.412);
#37=CIRCLE('',#1036,1.21199999999993);
#38=CIRCLE('',#1037,2.41199999999995);
#39=CIRCLE('',#1040,1.212);
#40=CIRCLE('',#1041,2.412);
#41=CIRCLE('',#1046,1.21200000000001);
#42=CIRCLE('',#1047,2.412);
#43=CIRCLE('',#1050,3.20999999999983);
#44=CIRCLE('',#1051,2.00999999999982);
#45=CIRCLE('',#1054,1.212);
#46=CIRCLE('',#1055,2.412);
#47=CIRCLE('',#1058,2.00999999999982);
#48=CIRCLE('',#1061,2.412);
#49=CIRCLE('',#1063,2.40626495565117);
#50=CIRCLE('',#1064,2.40626495565117);
#51=CIRCLE('',#1067,2.40626495565116);
#52=CIRCLE('',#1070,2.40626495565116);
#53=CIRCLE('',#1078,2.09999999999996);
#54=CIRCLE('',#1079,2.09999999999996);
#55=CIRCLE('',#1082,2.09999999999998);
#56=CIRCLE('',#1083,2.09999999999998);
#57=CIRCLE('',#1087,1.60799999999979);
#58=CIRCLE('',#1088,1.60800000000006);
#59=CIRCLE('',#1089,2.412);
#60=CIRCLE('',#1090,2.41199999999995);
#61=CIRCLE('',#1092,2.412);
#62=CIRCLE('',#1093,2.412);
#63=CIRCLE('',#1094,1.60799999998377);
#64=CIRCLE('',#1095,2.61299999999979);
#65=CIRCLE('',#1096,1.60800000000011);
#66=CIRCLE('',#1097,1.60800000000005);
#67=CIRCLE('',#1103,2.61299999999979);
#68=CIRCLE('',#1106,1.60799999998377);
#69=CIRCLE('',#1108,1.60800000000006);
#70=CIRCLE('',#1111,1.60799999999979);
#71=CIRCLE('',#1114,1.60800000000005);
#72=CIRCLE('',#1117,1.60800000000011);
#73=CONICAL_SURFACE('',#1031,1.812,0.78539816339745);
#74=CONICAL_SURFACE('',#1035,1.81199999999994,0.785398163397455);
#75=CONICAL_SURFACE('',#1039,1.812,0.785398163397447);
#76=CONICAL_SURFACE('',#1045,1.81200000000001,0.785398163397445);
#77=CONICAL_SURFACE('',#1049,2.60999999999982,0.785398163397451);
#78=CONICAL_SURFACE('',#1053,1.812,0.785398163397448);
#79=FACE_OUTER_BOUND('',#134,.T.);
#80=FACE_OUTER_BOUND('',#135,.T.);
#81=FACE_OUTER_BOUND('',#136,.T.);
#82=FACE_OUTER_BOUND('',#137,.T.);
#83=FACE_OUTER_BOUND('',#138,.T.);
#84=FACE_OUTER_BOUND('',#139,.T.);
#85=FACE_OUTER_BOUND('',#140,.T.);
#86=FACE_OUTER_BOUND('',#141,.T.);
#87=FACE_OUTER_BOUND('',#142,.T.);
#88=FACE_OUTER_BOUND('',#143,.T.);
#89=FACE_OUTER_BOUND('',#144,.T.);
#90=FACE_OUTER_BOUND('',#145,.T.);
#91=FACE_OUTER_BOUND('',#146,.T.);
#92=FACE_OUTER_BOUND('',#147,.T.);
#93=FACE_OUTER_BOUND('',#148,.T.);
#94=FACE_OUTER_BOUND('',#149,.T.);
#95=FACE_OUTER_BOUND('',#150,.T.);
#96=FACE_OUTER_BOUND('',#151,.T.);
#97=FACE_OUTER_BOUND('',#152,.T.);
#98=FACE_OUTER_BOUND('',#153,.T.);
#99=FACE_OUTER_BOUND('',#154,.T.);
#100=FACE_OUTER_BOUND('',#155,.T.);
#101=FACE_OUTER_BOUND('',#157,.T.);
#102=FACE_OUTER_BOUND('',#158,.T.);
#103=FACE_OUTER_BOUND('',#159,.T.);
#104=FACE_OUTER_BOUND('',#160,.T.);
#105=FACE_OUTER_BOUND('',#161,.T.);
#106=FACE_OUTER_BOUND('',#162,.T.);
#107=FACE_OUTER_BOUND('',#163,.T.);
#108=FACE_OUTER_BOUND('',#164,.T.);
#109=FACE_OUTER_BOUND('',#165,.T.);
#110=FACE_OUTER_BOUND('',#166,.T.);
#111=FACE_OUTER_BOUND('',#167,.T.);
#112=FACE_OUTER_BOUND('',#168,.T.);
#113=FACE_OUTER_BOUND('',#169,.T.);
#114=FACE_OUTER_BOUND('',#170,.T.);
#115=FACE_OUTER_BOUND('',#171,.T.);
#116=FACE_OUTER_BOUND('',#172,.T.);
#117=FACE_OUTER_BOUND('',#173,.T.);
#118=FACE_OUTER_BOUND('',#174,.T.);
#119=FACE_OUTER_BOUND('',#175,.T.);
#120=FACE_OUTER_BOUND('',#176,.T.);
#121=FACE_OUTER_BOUND('',#177,.T.);
#122=FACE_OUTER_BOUND('',#178,.T.);
#123=FACE_OUTER_BOUND('',#179,.T.);
#124=FACE_OUTER_BOUND('',#180,.T.);
#125=FACE_OUTER_BOUND('',#181,.T.);
#126=FACE_OUTER_BOUND('',#182,.T.);
#127=FACE_OUTER_BOUND('',#183,.T.);
#128=FACE_OUTER_BOUND('',#184,.T.);
#129=FACE_OUTER_BOUND('',#185,.T.);
#130=FACE_OUTER_BOUND('',#186,.T.);
#131=FACE_OUTER_BOUND('',#187,.T.);
#132=FACE_OUTER_BOUND('',#188,.T.);
#133=FACE_OUTER_BOUND('',#189,.T.);
#134=EDGE_LOOP('',(#646,#647,#648,#649));
#135=EDGE_LOOP('',(#650,#651,#652,#653));
#136=EDGE_LOOP('',(#654,#655,#656,#657));
#137=EDGE_LOOP('',(#658,#659,#660,#661));
#138=EDGE_LOOP('',(#662,#663,#664,#665));
#139=EDGE_LOOP('',(#666,#667,#668,#669));
#140=EDGE_LOOP('',(#670,#671,#672,#673,#674,#675,#676,#677));
#141=EDGE_LOOP('',(#678,#679,#680,#681));
#142=EDGE_LOOP('',(#682,#683,#684,#685));
#143=EDGE_LOOP('',(#686,#687,#688,#689));
#144=EDGE_LOOP('',(#690,#691,#692,#693));
#145=EDGE_LOOP('',(#694,#695,#696,#697));
#146=EDGE_LOOP('',(#698,#699,#700,#701));
#147=EDGE_LOOP('',(#702,#703,#704,#705));
#148=EDGE_LOOP('',(#706,#707,#708,#709));
#149=EDGE_LOOP('',(#710,#711,#712,#713));
#150=EDGE_LOOP('',(#714,#715,#716,#717,#718));
#151=EDGE_LOOP('',(#719,#720,#721,#722));
#152=EDGE_LOOP('',(#723,#724,#725,#726,#727));
#153=EDGE_LOOP('',(#728,#729,#730,#731,#732));
#154=EDGE_LOOP('',(#733,#734,#735,#736,#737));
#155=EDGE_LOOP('',(#738,#739,#740,#741,#742,#743,#744,#745,#746,#747,#748,
#749));
#156=EDGE_LOOP('',(#750,#751,#752,#753));
#157=EDGE_LOOP('',(#754,#755,#756,#757));
#158=EDGE_LOOP('',(#758,#759,#760,#761));
#159=EDGE_LOOP('',(#762,#763,#764,#765));
#160=EDGE_LOOP('',(#766,#767,#768,#769));
#161=EDGE_LOOP('',(#770,#771,#772,#773));
#162=EDGE_LOOP('',(#774,#775,#776,#777));
#163=EDGE_LOOP('',(#778,#779,#780,#781));
#164=EDGE_LOOP('',(#782,#783,#784,#785));
#165=EDGE_LOOP('',(#786,#787,#788,#789));
#166=EDGE_LOOP('',(#790,#791,#792,#793,#794,#795,#796,#797,#798,#799));
#167=EDGE_LOOP('',(#800,#801,#802,#803,#804,#805,#806,#807,#808,#809,#810,
#811));
#168=EDGE_LOOP('',(#812,#813,#814,#815,#816,#817,#818,#819,#820,#821,#822,
#823,#824,#825,#826,#827,#828,#829,#830,#831));
#169=EDGE_LOOP('',(#832,#833,#834,#835));
#170=EDGE_LOOP('',(#836,#837,#838,#839));
#171=EDGE_LOOP('',(#840,#841,#842,#843,#844,#845,#846,#847,#848,#849));
#172=EDGE_LOOP('',(#850,#851,#852,#853));
#173=EDGE_LOOP('',(#854,#855,#856,#857));
#174=EDGE_LOOP('',(#858,#859,#860,#861));
#175=EDGE_LOOP('',(#862,#863,#864,#865));
#176=EDGE_LOOP('',(#866,#867,#868,#869));
#177=EDGE_LOOP('',(#870,#871,#872,#873));
#178=EDGE_LOOP('',(#874,#875,#876,#877));
#179=EDGE_LOOP('',(#878,#879,#880,#881,#882,#883,#884,#885,#886,#887));
#180=EDGE_LOOP('',(#888,#889,#890,#891));
#181=EDGE_LOOP('',(#892,#893,#894,#895));
#182=EDGE_LOOP('',(#896,#897,#898,#899));
#183=EDGE_LOOP('',(#900,#901,#902,#903));
#184=EDGE_LOOP('',(#904,#905,#906,#907));
#185=EDGE_LOOP('',(#908,#909,#910,#911));
#186=EDGE_LOOP('',(#912,#913,#914,#915));
#187=EDGE_LOOP('',(#916,#917,#918,#919));
#188=EDGE_LOOP('',(#920,#921,#922,#923));
#189=EDGE_LOOP('',(#924,#925,#926,#927,#928,#929,#930,#931,#932,#933,#934,
#935));
#190=EDGE_LOOP('',(#936,#937,#938,#939));
#191=LINE('',#1428,#298);
#192=LINE('',#1430,#299);
#193=LINE('',#1432,#300);
#194=LINE('',#1433,#301);
#195=LINE('',#1437,#302);
#196=LINE('',#1443,#303);
#197=LINE('',#1444,#304);
#198=LINE('',#1445,#305);
#199=LINE('',#1449,#306);
#200=LINE('',#1455,#307);
#201=LINE('',#1456,#308);
#202=LINE('',#1457,#309);
#203=LINE('',#1461,#310);
#204=LINE('',#1469,#311);
#205=LINE('',#1471,#312);
#206=LINE('',#1472,#313);
#207=LINE('',#1474,#314);
#208=LINE('',#1477,#315);
#209=LINE('',#1481,#316);
#210=LINE('',#1487,#317);
#211=LINE('',#1488,#318);
#212=LINE('',#1489,#319);
#213=LINE('',#1493,#320);
#214=LINE('',#1499,#321);
#215=LINE('',#1500,#322);
#216=LINE('',#1501,#323);
#217=LINE('',#1507,#324);
#218=LINE('',#1509,#325);
#219=LINE('',#1510,#326);
#220=LINE('',#1513,#327);
#221=LINE('',#1517,#328);
#222=LINE('',#1518,#329);
#223=LINE('',#1521,#330);
#224=LINE('',#1525,#331);
#225=LINE('',#1529,#332);
#226=LINE('',#1533,#333);
#227=LINE('',#1534,#334);
#228=LINE('',#1537,#335);
#229=LINE('',#1539,#336);
#230=LINE('',#1541,#337);
#231=LINE('',#1545,#338);
#232=LINE('',#1546,#339);
#233=LINE('',#1549,#340);
#234=LINE('',#1554,#341);
#235=LINE('',#1556,#342);
#236=LINE('',#1558,#343);
#237=LINE('',#1559,#344);
#238=LINE('',#1562,#345);
#239=LINE('',#1564,#346);
#240=LINE('',#1565,#347);
#241=LINE('',#1568,#348);
#242=LINE('',#1569,#349);
#243=LINE('',#1572,#350);
#244=LINE('',#1573,#351);
#245=LINE('',#1575,#352);
#246=LINE('',#1579,#353);
#247=LINE('',#1581,#354);
#248=LINE('',#1583,#355);
#249=LINE('',#1584,#356);
#250=LINE('',#1589,#357);
#251=LINE('',#1593,#358);
#252=LINE('',#1595,#359);
#253=LINE('',#1596,#360);
#254=LINE('',#1601,#361);
#255=LINE('',#1605,#362);
#256=LINE('',#1607,#363);
#257=LINE('',#1608,#364);
#258=LINE('',#1611,#365);
#259=LINE('',#1612,#366);
#260=LINE('',#1614,#367);
#261=LINE('',#1615,#368);
#262=LINE('',#1618,#369);
#263=LINE('',#1622,#370);
#264=LINE('',#1626,#371);
#265=LINE('',#1627,#372);
#266=LINE('',#1631,#373);
#267=LINE('',#1637,#374);
#268=LINE('',#1640,#375);
#269=LINE('',#1642,#376);
#270=LINE('',#1646,#377);
#271=LINE('',#1650,#378);
#272=LINE('',#1654,#379);
#273=LINE('',#1657,#380);
#274=LINE('',#1659,#381);
#275=LINE('',#1661,#382);
#276=LINE('',#1664,#383);
#277=LINE('',#1666,#384);
#278=LINE('',#1667,#385);
#279=LINE('',#1671,#386);
#280=LINE('',#1672,#387);
#281=LINE('',#1673,#388);
#282=LINE('',#1677,#389);
#283=LINE('',#1680,#390);
#284=LINE('',#1681,#391);
#285=LINE('',#1687,#392);
#286=LINE('',#1690,#393);
#287=LINE('',#1691,#394);
#288=LINE('',#1695,#395);
#289=LINE('',#1698,#396);
#290=LINE('',#1699,#397);
#291=LINE('',#1703,#398);
#292=LINE('',#1706,#399);
#293=LINE('',#1707,#400);
#294=LINE('',#1711,#401);
#295=LINE('',#1713,#402);
#296=LINE('',#1716,#403);
#297=LINE('',#1718,#404);
#298=VECTOR('',#1129,10.);
#299=VECTOR('',#1130,10.);
#300=VECTOR('',#1131,10.);
#301=VECTOR('',#1132,10.);
#302=VECTOR('',#1135,10.);
#303=VECTOR('',#1142,10.);
#304=VECTOR('',#1143,10.);
#305=VECTOR('',#1144,10.);
#306=VECTOR('',#1147,10.);
#307=VECTOR('',#1154,10.);
#308=VECTOR('',#1155,10.);
#309=VECTOR('',#1156,10.);
#310=VECTOR('',#1159,10.);
#311=VECTOR('',#1168,10.);
#312=VECTOR('',#1169,10.);
#313=VECTOR('',#1170,10.);
#314=VECTOR('',#1171,10.);
#315=VECTOR('',#1174,10.);
#316=VECTOR('',#1177,10.);
#317=VECTOR('',#1184,10.);
#318=VECTOR('',#1185,10.);
#319=VECTOR('',#1186,10.);
#320=VECTOR('',#1189,10.);
#321=VECTOR('',#1196,10.);
#322=VECTOR('',#1197,10.);
#323=VECTOR('',#1198,10.);
#324=VECTOR('',#1207,10.05);
#325=VECTOR('',#1208,10.05);
#326=VECTOR('',#1209,10.05);
#327=VECTOR('',#1212,10.05);
#328=VECTOR('',#1217,10.05);
#329=VECTOR('',#1218,10.05);
#330=VECTOR('',#1221,10.05);
#331=VECTOR('',#1226,10.);
#332=VECTOR('',#1229,10.);
#333=VECTOR('',#1234,10.);
#334=VECTOR('',#1235,10.);
#335=VECTOR('',#1238,10.05);
#336=VECTOR('',#1239,10.05);
#337=VECTOR('',#1240,10.);
#338=VECTOR('',#1245,10.);
#339=VECTOR('',#1246,10.05);
#340=VECTOR('',#1249,10.);
#341=VECTOR('',#1254,10.);
#342=VECTOR('',#1255,10.);
#343=VECTOR('',#1256,10.);
#344=VECTOR('',#1257,10.);
#345=VECTOR('',#1260,10.);
#346=VECTOR('',#1261,10.);
#347=VECTOR('',#1262,10.);
#348=VECTOR('',#1265,10.);
#349=VECTOR('',#1266,10.);
#350=VECTOR('',#1269,10.);
#351=VECTOR('',#1270,10.);
#352=VECTOR('',#1273,10.);
#353=VECTOR('',#1276,10.);
#354=VECTOR('',#1277,10.);
#355=VECTOR('',#1278,10.);
#356=VECTOR('',#1279,10.);
#357=VECTOR('',#1284,10.);
#358=VECTOR('',#1289,10.);
#359=VECTOR('',#1290,10.);
#360=VECTOR('',#1291,10.);
#361=VECTOR('',#1296,10.);
#362=VECTOR('',#1301,10.);
#363=VECTOR('',#1302,10.);
#364=VECTOR('',#1303,10.);
#365=VECTOR('',#1306,10.05);
#366=VECTOR('',#1307,10.05);
#367=VECTOR('',#1308,10.05);
#368=VECTOR('',#1309,10.05);
#369=VECTOR('',#1312,10.05);
#370=VECTOR('',#1315,10.05);
#371=VECTOR('',#1318,10.05);
#372=VECTOR('',#1319,10.);
#373=VECTOR('',#1322,10.05);
#374=VECTOR('',#1329,10.05);
#375=VECTOR('',#1332,10.);
#376=VECTOR('',#1333,10.05);
#377=VECTOR('',#1336,10.05);
#378=VECTOR('',#1339,10.05);
#379=VECTOR('',#1342,10.05);
#380=VECTOR('',#1345,10.05);
#381=VECTOR('',#1348,10.);
#382=VECTOR('',#1351,10.);
#383=VECTOR('',#1354,10.05);
#384=VECTOR('',#1355,10.05);
#385=VECTOR('',#1356,10.05);
#386=VECTOR('',#1359,10.05);
#387=VECTOR('',#1360,10.05);
#388=VECTOR('',#1361,10.05);
#389=VECTOR('',#1366,10.05);
#390=VECTOR('',#1369,10.05);
#391=VECTOR('',#1370,10.05);
#392=VECTOR('',#1379,10.05);
#393=VECTOR('',#1382,10.05);
#394=VECTOR('',#1383,10.05);
#395=VECTOR('',#1388,10.05);
#396=VECTOR('',#1391,10.05);
#397=VECTOR('',#1392,10.05);
#398=VECTOR('',#1397,10.05);
#399=VECTOR('',#1400,10.05);
#400=VECTOR('',#1401,10.05);
#401=VECTOR('',#1408,10.05);
#402=VECTOR('',#1411,10.05);
#403=VECTOR('',#1416,10.05);
#404=VECTOR('',#1419,10.05);
#405=VERTEX_POINT('',#1426);
#406=VERTEX_POINT('',#1427);
#407=VERTEX_POINT('',#1429);
#408=VERTEX_POINT('',#1431);
#409=VERTEX_POINT('',#1435);
#410=VERTEX_POINT('',#1436);
#411=VERTEX_POINT('',#1441);
#412=VERTEX_POINT('',#1442);
#413=VERTEX_POINT('',#1447);
#414=VERTEX_POINT('',#1448);
#415=VERTEX_POINT('',#1453);
#416=VERTEX_POINT('',#1454);
#417=VERTEX_POINT('',#1459);
#418=VERTEX_POINT('',#1460);
#419=VERTEX_POINT('',#1465);
#420=VERTEX_POINT('',#1466);
#421=VERTEX_POINT('',#1468);
#422=VERTEX_POINT('',#1470);
#423=VERTEX_POINT('',#1473);
#424=VERTEX_POINT('',#1475);
#425=VERTEX_POINT('',#1479);
#426=VERTEX_POINT('',#1480);
#427=VERTEX_POINT('',#1485);
#428=VERTEX_POINT('',#1486);
#429=VERTEX_POINT('',#1491);
#430=VERTEX_POINT('',#1492);
#431=VERTEX_POINT('',#1497);
#432=VERTEX_POINT('',#1498);
#433=VERTEX_POINT('',#1506);
#434=VERTEX_POINT('',#1508);
#435=VERTEX_POINT('',#1512);
#436=VERTEX_POINT('',#1516);
#437=VERTEX_POINT('',#1520);
#438=VERTEX_POINT('',#1524);
#439=VERTEX_POINT('',#1526);
#440=VERTEX_POINT('',#1528);
#441=VERTEX_POINT('',#1532);
#442=VERTEX_POINT('',#1536);
#443=VERTEX_POINT('',#1538);
#444=VERTEX_POINT('',#1540);
#445=VERTEX_POINT('',#1544);
#446=VERTEX_POINT('',#1548);
#447=VERTEX_POINT('',#1552);
#448=VERTEX_POINT('',#1553);
#449=VERTEX_POINT('',#1555);
#450=VERTEX_POINT('',#1557);
#451=VERTEX_POINT('',#1561);
#452=VERTEX_POINT('',#1563);
#453=VERTEX_POINT('',#1567);
#454=VERTEX_POINT('',#1571);
#455=VERTEX_POINT('',#1577);
#456=VERTEX_POINT('',#1578);
#457=VERTEX_POINT('',#1580);
#458=VERTEX_POINT('',#1582);
#459=VERTEX_POINT('',#1586);
#460=VERTEX_POINT('',#1588);
#461=VERTEX_POINT('',#1592);
#462=VERTEX_POINT('',#1594);
#463=VERTEX_POINT('',#1598);
#464=VERTEX_POINT('',#1600);
#465=VERTEX_POINT('',#1604);
#466=VERTEX_POINT('',#1606);
#467=VERTEX_POINT('',#1610);
#468=VERTEX_POINT('',#1613);
#469=VERTEX_POINT('',#1617);
#470=VERTEX_POINT('',#1619);
#471=VERTEX_POINT('',#1621);
#472=VERTEX_POINT('',#1623);
#473=VERTEX_POINT('',#1625);
#474=VERTEX_POINT('',#1628);
#475=VERTEX_POINT('',#1630);
#476=VERTEX_POINT('',#1634);
#477=VERTEX_POINT('',#1636);
#478=VERTEX_POINT('',#1639);
#479=VERTEX_POINT('',#1641);
#480=VERTEX_POINT('',#1643);
#481=VERTEX_POINT('',#1645);
#482=VERTEX_POINT('',#1647);
#483=VERTEX_POINT('',#1649);
#484=VERTEX_POINT('',#1651);
#485=VERTEX_POINT('',#1653);
#486=VERTEX_POINT('',#1655);
#487=VERTEX_POINT('',#1663);
#488=VERTEX_POINT('',#1665);
#489=VERTEX_POINT('',#1669);
#490=VERTEX_POINT('',#1670);
#491=VERTEX_POINT('',#1675);
#492=VERTEX_POINT('',#1679);
#493=VERTEX_POINT('',#1685);
#494=VERTEX_POINT('',#1689);
#495=VERTEX_POINT('',#1693);
#496=VERTEX_POINT('',#1697);
#497=VERTEX_POINT('',#1701);
#498=VERTEX_POINT('',#1705);
#499=EDGE_CURVE('',#405,#406,#191,.T.);
#500=EDGE_CURVE('',#406,#407,#192,.T.);
#501=EDGE_CURVE('',#407,#408,#193,.T.);
#502=EDGE_CURVE('',#408,#405,#194,.T.);
#503=EDGE_CURVE('',#409,#410,#195,.T.);
#504=EDGE_CURVE('',#410,#406,#35,.T.);
#505=EDGE_CURVE('',#405,#409,#36,.T.);
#506=EDGE_CURVE('',#411,#412,#196,.T.);
#507=EDGE_CURVE('',#412,#410,#197,.T.);
#508=EDGE_CURVE('',#409,#411,#198,.T.);
#509=EDGE_CURVE('',#413,#414,#199,.T.);
#510=EDGE_CURVE('',#414,#412,#37,.T.);
#511=EDGE_CURVE('',#411,#413,#38,.T.);
#512=EDGE_CURVE('',#415,#416,#200,.T.);
#513=EDGE_CURVE('',#416,#414,#201,.T.);
#514=EDGE_CURVE('',#413,#415,#202,.T.);
#515=EDGE_CURVE('',#417,#418,#203,.T.);
#516=EDGE_CURVE('',#418,#416,#39,.T.);
#517=EDGE_CURVE('',#415,#417,#40,.T.);
#518=EDGE_CURVE('',#419,#420,#33,.T.);
#519=EDGE_CURVE('',#420,#421,#204,.T.);
#520=EDGE_CURVE('',#421,#422,#205,.T.);
#521=EDGE_CURVE('',#422,#418,#206,.T.);
#522=EDGE_CURVE('',#417,#423,#207,.T.);
#523=EDGE_CURVE('',#423,#424,#34,.T.);
#524=EDGE_CURVE('',#424,#419,#208,.T.);
#525=EDGE_CURVE('',#425,#426,#209,.T.);
#526=EDGE_CURVE('',#426,#422,#41,.T.);
#527=EDGE_CURVE('',#421,#425,#42,.T.);
#528=EDGE_CURVE('',#427,#428,#210,.T.);
#529=EDGE_CURVE('',#428,#426,#211,.T.);
#530=EDGE_CURVE('',#425,#427,#212,.T.);
#531=EDGE_CURVE('',#429,#430,#213,.T.);
#532=EDGE_CURVE('',#430,#428,#43,.T.);
#533=EDGE_CURVE('',#427,#429,#44,.T.);
#534=EDGE_CURVE('',#431,#432,#214,.T.);
#535=EDGE_CURVE('',#432,#430,#215,.T.);
#536=EDGE_CURVE('',#429,#431,#216,.T.);
#537=EDGE_CURVE('',#407,#432,#45,.T.);
#538=EDGE_CURVE('',#431,#408,#46,.T.);
#539=EDGE_CURVE('',#433,#429,#217,.T.);
#540=EDGE_CURVE('',#434,#433,#218,.T.);
#541=EDGE_CURVE('',#431,#434,#219,.T.);
#542=EDGE_CURVE('',#435,#427,#220,.T.);
#543=EDGE_CURVE('',#433,#435,#47,.T.);
#544=EDGE_CURVE('',#436,#425,#221,.T.);
#545=EDGE_CURVE('',#435,#436,#222,.T.);
#546=EDGE_CURVE('',#437,#421,#223,.T.);
#547=EDGE_CURVE('',#436,#437,#48,.T.);
#548=EDGE_CURVE('',#438,#419,#224,.T.);
#549=EDGE_CURVE('',#439,#438,#49,.T.);
#550=EDGE_CURVE('',#439,#440,#225,.T.);
#551=EDGE_CURVE('',#420,#440,#50,.T.);
#552=EDGE_CURVE('',#441,#424,#226,.T.);
#553=EDGE_CURVE('',#438,#441,#227,.T.);
#554=EDGE_CURVE('',#442,#417,#228,.T.);
#555=EDGE_CURVE('',#443,#442,#229,.T.);
#556=EDGE_CURVE('',#443,#444,#230,.T.);
#557=EDGE_CURVE('',#444,#423,#51,.T.);
#558=EDGE_CURVE('',#440,#445,#231,.T.);
#559=EDGE_CURVE('',#437,#445,#232,.T.);
#560=EDGE_CURVE('',#446,#444,#233,.T.);
#561=EDGE_CURVE('',#441,#446,#52,.T.);
#562=EDGE_CURVE('',#447,#448,#234,.T.);
#563=EDGE_CURVE('',#448,#449,#235,.T.);
#564=EDGE_CURVE('',#449,#450,#236,.T.);
#565=EDGE_CURVE('',#450,#447,#237,.T.);
#566=EDGE_CURVE('',#449,#451,#238,.T.);
#567=EDGE_CURVE('',#452,#451,#239,.T.);
#568=EDGE_CURVE('',#450,#452,#240,.T.);
#569=EDGE_CURVE('',#453,#452,#241,.T.);
#570=EDGE_CURVE('',#447,#453,#242,.T.);
#571=EDGE_CURVE('',#454,#453,#243,.T.);
#572=EDGE_CURVE('',#448,#454,#244,.T.);
#573=EDGE_CURVE('',#451,#454,#245,.T.);
#574=EDGE_CURVE('',#455,#456,#246,.T.);
#575=EDGE_CURVE('',#455,#457,#247,.T.);
#576=EDGE_CURVE('',#458,#457,#248,.T.);
#577=EDGE_CURVE('',#456,#458,#249,.T.);
#578=EDGE_CURVE('',#459,#455,#53,.T.);
#579=EDGE_CURVE('',#459,#460,#250,.T.);
#580=EDGE_CURVE('',#457,#460,#54,.T.);
#581=EDGE_CURVE('',#461,#459,#251,.T.);
#582=EDGE_CURVE('',#461,#462,#252,.T.);
#583=EDGE_CURVE('',#460,#462,#253,.T.);
#584=EDGE_CURVE('',#463,#461,#55,.T.);
#585=EDGE_CURVE('',#463,#464,#254,.T.);
#586=EDGE_CURVE('',#462,#464,#56,.T.);
#587=EDGE_CURVE('',#465,#463,#255,.T.);
#588=EDGE_CURVE('',#466,#465,#256,.T.);
#589=EDGE_CURVE('',#464,#466,#257,.T.);
#590=EDGE_CURVE('',#467,#409,#258,.T.);
#591=EDGE_CURVE('',#458,#467,#259,.T.);
#592=EDGE_CURVE('',#468,#466,#260,.T.);
#593=EDGE_CURVE('',#468,#411,#261,.T.);
#594=EDGE_CURVE('',#465,#469,#262,.T.);
#595=EDGE_CURVE('',#469,#470,#57,.T.);
#596=EDGE_CURVE('',#470,#471,#263,.T.);
#597=EDGE_CURVE('',#471,#472,#58,.T.);
#598=EDGE_CURVE('',#472,#473,#264,.T.);
#599=EDGE_CURVE('',#473,#443,#265,.T.);
#600=EDGE_CURVE('',#442,#474,#59,.T.);
#601=EDGE_CURVE('',#474,#475,#266,.T.);
#602=EDGE_CURVE('',#475,#468,#60,.T.);
#603=EDGE_CURVE('',#467,#476,#61,.T.);
#604=EDGE_CURVE('',#476,#477,#267,.T.);
#605=EDGE_CURVE('',#477,#434,#62,.T.);
#606=EDGE_CURVE('',#445,#478,#268,.T.);
#607=EDGE_CURVE('',#478,#479,#269,.T.);
#608=EDGE_CURVE('',#479,#480,#63,.T.);
#609=EDGE_CURVE('',#480,#481,#270,.T.);
#610=EDGE_CURVE('',#481,#482,#64,.T.);
#611=EDGE_CURVE('',#482,#483,#271,.T.);
#612=EDGE_CURVE('',#483,#484,#65,.T.);
#613=EDGE_CURVE('',#484,#485,#272,.T.);
#614=EDGE_CURVE('',#485,#486,#66,.T.);
#615=EDGE_CURVE('',#486,#456,#273,.T.);
#616=EDGE_CURVE('',#478,#439,#274,.T.);
#617=EDGE_CURVE('',#446,#473,#275,.T.);
#618=EDGE_CURVE('',#487,#472,#276,.T.);
#619=EDGE_CURVE('',#488,#487,#277,.T.);
#620=EDGE_CURVE('',#488,#479,#278,.T.);
#621=EDGE_CURVE('',#489,#490,#279,.T.);
#622=EDGE_CURVE('',#489,#483,#280,.T.);
#623=EDGE_CURVE('',#490,#482,#281,.T.);
#624=EDGE_CURVE('',#490,#491,#67,.T.);
#625=EDGE_CURVE('',#491,#481,#282,.T.);
#626=EDGE_CURVE('',#491,#492,#283,.T.);
#627=EDGE_CURVE('',#492,#480,#284,.T.);
#628=EDGE_CURVE('',#492,#488,#68,.T.);
#629=EDGE_CURVE('',#487,#493,#69,.T.);
#630=EDGE_CURVE('',#493,#471,#285,.T.);
#631=EDGE_CURVE('',#493,#494,#286,.T.);
#632=EDGE_CURVE('',#494,#470,#287,.T.);
#633=EDGE_CURVE('',#494,#495,#70,.T.);
#634=EDGE_CURVE('',#495,#469,#288,.T.);
#635=EDGE_CURVE('',#496,#486,#289,.T.);
#636=EDGE_CURVE('',#495,#496,#290,.T.);
#637=EDGE_CURVE('',#496,#497,#71,.T.);
#638=EDGE_CURVE('',#497,#485,#291,.T.);
#639=EDGE_CURVE('',#497,#498,#292,.T.);
#640=EDGE_CURVE('',#498,#484,#293,.T.);
#641=EDGE_CURVE('',#498,#489,#72,.T.);
#642=EDGE_CURVE('',#474,#415,#294,.T.);
#643=EDGE_CURVE('',#475,#413,#295,.T.);
#644=EDGE_CURVE('',#476,#405,#296,.T.);
#645=EDGE_CURVE('',#477,#408,#297,.T.);
#646=ORIENTED_EDGE('',*,*,#499,.T.);
#647=ORIENTED_EDGE('',*,*,#500,.T.);
#648=ORIENTED_EDGE('',*,*,#501,.T.);
#649=ORIENTED_EDGE('',*,*,#502,.T.);
#650=ORIENTED_EDGE('',*,*,#503,.T.);
#651=ORIENTED_EDGE('',*,*,#504,.T.);
#652=ORIENTED_EDGE('',*,*,#499,.F.);
#653=ORIENTED_EDGE('',*,*,#505,.T.);
#654=ORIENTED_EDGE('',*,*,#506,.T.);
#655=ORIENTED_EDGE('',*,*,#507,.T.);
#656=ORIENTED_EDGE('',*,*,#503,.F.);
#657=ORIENTED_EDGE('',*,*,#508,.T.);
#658=ORIENTED_EDGE('',*,*,#509,.T.);
#659=ORIENTED_EDGE('',*,*,#510,.T.);
#660=ORIENTED_EDGE('',*,*,#506,.F.);
#661=ORIENTED_EDGE('',*,*,#511,.T.);
#662=ORIENTED_EDGE('',*,*,#512,.T.);
#663=ORIENTED_EDGE('',*,*,#513,.T.);
#664=ORIENTED_EDGE('',*,*,#509,.F.);
#665=ORIENTED_EDGE('',*,*,#514,.T.);
#666=ORIENTED_EDGE('',*,*,#515,.T.);
#667=ORIENTED_EDGE('',*,*,#516,.T.);
#668=ORIENTED_EDGE('',*,*,#512,.F.);
#669=ORIENTED_EDGE('',*,*,#517,.T.);
#670=ORIENTED_EDGE('',*,*,#518,.T.);
#671=ORIENTED_EDGE('',*,*,#519,.T.);
#672=ORIENTED_EDGE('',*,*,#520,.T.);
#673=ORIENTED_EDGE('',*,*,#521,.T.);
#674=ORIENTED_EDGE('',*,*,#515,.F.);
#675=ORIENTED_EDGE('',*,*,#522,.T.);
#676=ORIENTED_EDGE('',*,*,#523,.T.);
#677=ORIENTED_EDGE('',*,*,#524,.T.);
#678=ORIENTED_EDGE('',*,*,#525,.T.);
#679=ORIENTED_EDGE('',*,*,#526,.T.);
#680=ORIENTED_EDGE('',*,*,#520,.F.);
#681=ORIENTED_EDGE('',*,*,#527,.T.);
#682=ORIENTED_EDGE('',*,*,#528,.T.);
#683=ORIENTED_EDGE('',*,*,#529,.T.);
#684=ORIENTED_EDGE('',*,*,#525,.F.);
#685=ORIENTED_EDGE('',*,*,#530,.T.);
#686=ORIENTED_EDGE('',*,*,#531,.T.);
#687=ORIENTED_EDGE('',*,*,#532,.T.);
#688=ORIENTED_EDGE('',*,*,#528,.F.);
#689=ORIENTED_EDGE('',*,*,#533,.T.);
#690=ORIENTED_EDGE('',*,*,#534,.T.);
#691=ORIENTED_EDGE('',*,*,#535,.T.);
#692=ORIENTED_EDGE('',*,*,#531,.F.);
#693=ORIENTED_EDGE('',*,*,#536,.T.);
#694=ORIENTED_EDGE('',*,*,#501,.F.);
#695=ORIENTED_EDGE('',*,*,#537,.T.);
#696=ORIENTED_EDGE('',*,*,#534,.F.);
#697=ORIENTED_EDGE('',*,*,#538,.T.);
#698=ORIENTED_EDGE('',*,*,#536,.F.);
#699=ORIENTED_EDGE('',*,*,#539,.F.);
#700=ORIENTED_EDGE('',*,*,#540,.F.);
#701=ORIENTED_EDGE('',*,*,#541,.F.);
#702=ORIENTED_EDGE('',*,*,#533,.F.);
#703=ORIENTED_EDGE('',*,*,#542,.F.);
#704=ORIENTED_EDGE('',*,*,#543,.F.);
#705=ORIENTED_EDGE('',*,*,#539,.T.);
#706=ORIENTED_EDGE('',*,*,#530,.F.);
#707=ORIENTED_EDGE('',*,*,#544,.F.);
#708=ORIENTED_EDGE('',*,*,#545,.F.);
#709=ORIENTED_EDGE('',*,*,#542,.T.);
#710=ORIENTED_EDGE('',*,*,#527,.F.);
#711=ORIENTED_EDGE('',*,*,#546,.F.);
#712=ORIENTED_EDGE('',*,*,#547,.F.);
#713=ORIENTED_EDGE('',*,*,#544,.T.);
#714=ORIENTED_EDGE('',*,*,#518,.F.);
#715=ORIENTED_EDGE('',*,*,#548,.F.);
#716=ORIENTED_EDGE('',*,*,#549,.F.);
#717=ORIENTED_EDGE('',*,*,#550,.T.);
#718=ORIENTED_EDGE('',*,*,#551,.F.);
#719=ORIENTED_EDGE('',*,*,#524,.F.);
#720=ORIENTED_EDGE('',*,*,#552,.F.);
#721=ORIENTED_EDGE('',*,*,#553,.F.);
#722=ORIENTED_EDGE('',*,*,#548,.T.);
#723=ORIENTED_EDGE('',*,*,#522,.F.);
#724=ORIENTED_EDGE('',*,*,#554,.F.);
#725=ORIENTED_EDGE('',*,*,#555,.F.);
#726=ORIENTED_EDGE('',*,*,#556,.T.);
#727=ORIENTED_EDGE('',*,*,#557,.T.);
#728=ORIENTED_EDGE('',*,*,#519,.F.);
#729=ORIENTED_EDGE('',*,*,#551,.T.);
#730=ORIENTED_EDGE('',*,*,#558,.T.);
#731=ORIENTED_EDGE('',*,*,#559,.F.);
#732=ORIENTED_EDGE('',*,*,#546,.T.);
#733=ORIENTED_EDGE('',*,*,#523,.F.);
#734=ORIENTED_EDGE('',*,*,#557,.F.);
#735=ORIENTED_EDGE('',*,*,#560,.F.);
#736=ORIENTED_EDGE('',*,*,#561,.F.);
#737=ORIENTED_EDGE('',*,*,#552,.T.);
#738=ORIENTED_EDGE('',*,*,#500,.F.);
#739=ORIENTED_EDGE('',*,*,#504,.F.);
#740=ORIENTED_EDGE('',*,*,#507,.F.);
#741=ORIENTED_EDGE('',*,*,#510,.F.);
#742=ORIENTED_EDGE('',*,*,#513,.F.);
#743=ORIENTED_EDGE('',*,*,#516,.F.);
#744=ORIENTED_EDGE('',*,*,#521,.F.);
#745=ORIENTED_EDGE('',*,*,#526,.F.);
#746=ORIENTED_EDGE('',*,*,#529,.F.);
#747=ORIENTED_EDGE('',*,*,#532,.F.);
#748=ORIENTED_EDGE('',*,*,#535,.F.);
#749=ORIENTED_EDGE('',*,*,#537,.F.);
#750=ORIENTED_EDGE('',*,*,#562,.T.);
#751=ORIENTED_EDGE('',*,*,#563,.T.);
#752=ORIENTED_EDGE('',*,*,#564,.T.);
#753=ORIENTED_EDGE('',*,*,#565,.T.);
#754=ORIENTED_EDGE('',*,*,#564,.F.);
#755=ORIENTED_EDGE('',*,*,#566,.T.);
#756=ORIENTED_EDGE('',*,*,#567,.F.);
#757=ORIENTED_EDGE('',*,*,#568,.F.);
#758=ORIENTED_EDGE('',*,*,#565,.F.);
#759=ORIENTED_EDGE('',*,*,#568,.T.);
#760=ORIENTED_EDGE('',*,*,#569,.F.);
#761=ORIENTED_EDGE('',*,*,#570,.F.);
#762=ORIENTED_EDGE('',*,*,#562,.F.);
#763=ORIENTED_EDGE('',*,*,#570,.T.);
#764=ORIENTED_EDGE('',*,*,#571,.F.);
#765=ORIENTED_EDGE('',*,*,#572,.F.);
#766=ORIENTED_EDGE('',*,*,#563,.F.);
#767=ORIENTED_EDGE('',*,*,#572,.T.);
#768=ORIENTED_EDGE('',*,*,#573,.F.);
#769=ORIENTED_EDGE('',*,*,#566,.F.);
#770=ORIENTED_EDGE('',*,*,#574,.F.);
#771=ORIENTED_EDGE('',*,*,#575,.T.);
#772=ORIENTED_EDGE('',*,*,#576,.F.);
#773=ORIENTED_EDGE('',*,*,#577,.F.);
#774=ORIENTED_EDGE('',*,*,#578,.F.);
#775=ORIENTED_EDGE('',*,*,#579,.T.);
#776=ORIENTED_EDGE('',*,*,#580,.F.);
#777=ORIENTED_EDGE('',*,*,#575,.F.);
#778=ORIENTED_EDGE('',*,*,#581,.F.);
#779=ORIENTED_EDGE('',*,*,#582,.T.);
#780=ORIENTED_EDGE('',*,*,#583,.F.);
#781=ORIENTED_EDGE('',*,*,#579,.F.);
#782=ORIENTED_EDGE('',*,*,#584,.F.);
#783=ORIENTED_EDGE('',*,*,#585,.T.);
#784=ORIENTED_EDGE('',*,*,#586,.F.);
#785=ORIENTED_EDGE('',*,*,#582,.F.);
#786=ORIENTED_EDGE('',*,*,#587,.F.);
#787=ORIENTED_EDGE('',*,*,#588,.F.);
#788=ORIENTED_EDGE('',*,*,#589,.F.);
#789=ORIENTED_EDGE('',*,*,#585,.F.);
#790=ORIENTED_EDGE('',*,*,#508,.F.);
#791=ORIENTED_EDGE('',*,*,#590,.F.);
#792=ORIENTED_EDGE('',*,*,#591,.F.);
#793=ORIENTED_EDGE('',*,*,#576,.T.);
#794=ORIENTED_EDGE('',*,*,#580,.T.);
#795=ORIENTED_EDGE('',*,*,#583,.T.);
#796=ORIENTED_EDGE('',*,*,#586,.T.);
#797=ORIENTED_EDGE('',*,*,#589,.T.);
#798=ORIENTED_EDGE('',*,*,#592,.F.);
#799=ORIENTED_EDGE('',*,*,#593,.T.);
#800=ORIENTED_EDGE('',*,*,#588,.T.);
#801=ORIENTED_EDGE('',*,*,#594,.T.);
#802=ORIENTED_EDGE('',*,*,#595,.T.);
#803=ORIENTED_EDGE('',*,*,#596,.T.);
#804=ORIENTED_EDGE('',*,*,#597,.T.);
#805=ORIENTED_EDGE('',*,*,#598,.T.);
#806=ORIENTED_EDGE('',*,*,#599,.T.);
#807=ORIENTED_EDGE('',*,*,#555,.T.);
#808=ORIENTED_EDGE('',*,*,#600,.T.);
#809=ORIENTED_EDGE('',*,*,#601,.T.);
#810=ORIENTED_EDGE('',*,*,#602,.T.);
#811=ORIENTED_EDGE('',*,*,#592,.T.);
#812=ORIENTED_EDGE('',*,*,#577,.T.);
#813=ORIENTED_EDGE('',*,*,#591,.T.);
#814=ORIENTED_EDGE('',*,*,#603,.T.);
#815=ORIENTED_EDGE('',*,*,#604,.T.);
#816=ORIENTED_EDGE('',*,*,#605,.T.);
#817=ORIENTED_EDGE('',*,*,#540,.T.);
#818=ORIENTED_EDGE('',*,*,#543,.T.);
#819=ORIENTED_EDGE('',*,*,#545,.T.);
#820=ORIENTED_EDGE('',*,*,#547,.T.);
#821=ORIENTED_EDGE('',*,*,#559,.T.);
#822=ORIENTED_EDGE('',*,*,#606,.T.);
#823=ORIENTED_EDGE('',*,*,#607,.T.);
#824=ORIENTED_EDGE('',*,*,#608,.T.);
#825=ORIENTED_EDGE('',*,*,#609,.T.);
#826=ORIENTED_EDGE('',*,*,#610,.T.);
#827=ORIENTED_EDGE('',*,*,#611,.T.);
#828=ORIENTED_EDGE('',*,*,#612,.T.);
#829=ORIENTED_EDGE('',*,*,#613,.T.);
#830=ORIENTED_EDGE('',*,*,#614,.T.);
#831=ORIENTED_EDGE('',*,*,#615,.T.);
#832=ORIENTED_EDGE('',*,*,#558,.F.);
#833=ORIENTED_EDGE('',*,*,#550,.F.);
#834=ORIENTED_EDGE('',*,*,#616,.F.);
#835=ORIENTED_EDGE('',*,*,#606,.F.);
#836=ORIENTED_EDGE('',*,*,#556,.F.);
#837=ORIENTED_EDGE('',*,*,#599,.F.);
#838=ORIENTED_EDGE('',*,*,#617,.F.);
#839=ORIENTED_EDGE('',*,*,#560,.T.);
#840=ORIENTED_EDGE('',*,*,#616,.T.);
#841=ORIENTED_EDGE('',*,*,#549,.T.);
#842=ORIENTED_EDGE('',*,*,#553,.T.);
#843=ORIENTED_EDGE('',*,*,#561,.T.);
#844=ORIENTED_EDGE('',*,*,#617,.T.);
#845=ORIENTED_EDGE('',*,*,#598,.F.);
#846=ORIENTED_EDGE('',*,*,#618,.F.);
#847=ORIENTED_EDGE('',*,*,#619,.F.);
#848=ORIENTED_EDGE('',*,*,#620,.T.);
#849=ORIENTED_EDGE('',*,*,#607,.F.);
#850=ORIENTED_EDGE('',*,*,#621,.F.);
#851=ORIENTED_EDGE('',*,*,#622,.T.);
#852=ORIENTED_EDGE('',*,*,#611,.F.);
#853=ORIENTED_EDGE('',*,*,#623,.F.);
#854=ORIENTED_EDGE('',*,*,#624,.F.);
#855=ORIENTED_EDGE('',*,*,#623,.T.);
#856=ORIENTED_EDGE('',*,*,#610,.F.);
#857=ORIENTED_EDGE('',*,*,#625,.F.);
#858=ORIENTED_EDGE('',*,*,#626,.F.);
#859=ORIENTED_EDGE('',*,*,#625,.T.);
#860=ORIENTED_EDGE('',*,*,#609,.F.);
#861=ORIENTED_EDGE('',*,*,#627,.F.);
#862=ORIENTED_EDGE('',*,*,#628,.F.);
#863=ORIENTED_EDGE('',*,*,#627,.T.);
#864=ORIENTED_EDGE('',*,*,#608,.F.);
#865=ORIENTED_EDGE('',*,*,#620,.F.);
#866=ORIENTED_EDGE('',*,*,#629,.F.);
#867=ORIENTED_EDGE('',*,*,#618,.T.);
#868=ORIENTED_EDGE('',*,*,#597,.F.);
#869=ORIENTED_EDGE('',*,*,#630,.F.);
#870=ORIENTED_EDGE('',*,*,#631,.F.);
#871=ORIENTED_EDGE('',*,*,#630,.T.);
#872=ORIENTED_EDGE('',*,*,#596,.F.);
#873=ORIENTED_EDGE('',*,*,#632,.F.);
#874=ORIENTED_EDGE('',*,*,#633,.F.);
#875=ORIENTED_EDGE('',*,*,#632,.T.);
#876=ORIENTED_EDGE('',*,*,#595,.F.);
#877=ORIENTED_EDGE('',*,*,#634,.F.);
#878=ORIENTED_EDGE('',*,*,#574,.T.);
#879=ORIENTED_EDGE('',*,*,#615,.F.);
#880=ORIENTED_EDGE('',*,*,#635,.F.);
#881=ORIENTED_EDGE('',*,*,#636,.F.);
#882=ORIENTED_EDGE('',*,*,#634,.T.);
#883=ORIENTED_EDGE('',*,*,#594,.F.);
#884=ORIENTED_EDGE('',*,*,#587,.T.);
#885=ORIENTED_EDGE('',*,*,#584,.T.);
#886=ORIENTED_EDGE('',*,*,#581,.T.);
#887=ORIENTED_EDGE('',*,*,#578,.T.);
#888=ORIENTED_EDGE('',*,*,#637,.F.);
#889=ORIENTED_EDGE('',*,*,#635,.T.);
#890=ORIENTED_EDGE('',*,*,#614,.F.);
#891=ORIENTED_EDGE('',*,*,#638,.F.);
#892=ORIENTED_EDGE('',*,*,#639,.F.);
#893=ORIENTED_EDGE('',*,*,#638,.T.);
#894=ORIENTED_EDGE('',*,*,#613,.F.);
#895=ORIENTED_EDGE('',*,*,#640,.F.);
#896=ORIENTED_EDGE('',*,*,#641,.F.);
#897=ORIENTED_EDGE('',*,*,#640,.T.);
#898=ORIENTED_EDGE('',*,*,#612,.F.);
#899=ORIENTED_EDGE('',*,*,#622,.F.);
#900=ORIENTED_EDGE('',*,*,#517,.F.);
#901=ORIENTED_EDGE('',*,*,#642,.F.);
#902=ORIENTED_EDGE('',*,*,#600,.F.);
#903=ORIENTED_EDGE('',*,*,#554,.T.);
#904=ORIENTED_EDGE('',*,*,#514,.F.);
#905=ORIENTED_EDGE('',*,*,#643,.F.);
#906=ORIENTED_EDGE('',*,*,#601,.F.);
#907=ORIENTED_EDGE('',*,*,#642,.T.);
#908=ORIENTED_EDGE('',*,*,#511,.F.);
#909=ORIENTED_EDGE('',*,*,#593,.F.);
#910=ORIENTED_EDGE('',*,*,#602,.F.);
#911=ORIENTED_EDGE('',*,*,#643,.T.);
#912=ORIENTED_EDGE('',*,*,#505,.F.);
#913=ORIENTED_EDGE('',*,*,#644,.F.);
#914=ORIENTED_EDGE('',*,*,#603,.F.);
#915=ORIENTED_EDGE('',*,*,#590,.T.);
#916=ORIENTED_EDGE('',*,*,#502,.F.);
#917=ORIENTED_EDGE('',*,*,#645,.F.);
#918=ORIENTED_EDGE('',*,*,#604,.F.);
#919=ORIENTED_EDGE('',*,*,#644,.T.);
#920=ORIENTED_EDGE('',*,*,#538,.F.);
#921=ORIENTED_EDGE('',*,*,#541,.T.);
#922=ORIENTED_EDGE('',*,*,#605,.F.);
#923=ORIENTED_EDGE('',*,*,#645,.T.);
#924=ORIENTED_EDGE('',*,*,#621,.T.);
#925=ORIENTED_EDGE('',*,*,#624,.T.);
#926=ORIENTED_EDGE('',*,*,#626,.T.);
#927=ORIENTED_EDGE('',*,*,#628,.T.);
#928=ORIENTED_EDGE('',*,*,#619,.T.);
#929=ORIENTED_EDGE('',*,*,#629,.T.);
#930=ORIENTED_EDGE('',*,*,#631,.T.);
#931=ORIENTED_EDGE('',*,*,#633,.T.);
#932=ORIENTED_EDGE('',*,*,#636,.T.);
#933=ORIENTED_EDGE('',*,*,#637,.T.);
#934=ORIENTED_EDGE('',*,*,#639,.T.);
#935=ORIENTED_EDGE('',*,*,#641,.T.);
#936=ORIENTED_EDGE('',*,*,#571,.T.);
#937=ORIENTED_EDGE('',*,*,#569,.T.);
#938=ORIENTED_EDGE('',*,*,#567,.T.);
#939=ORIENTED_EDGE('',*,*,#573,.T.);
#940=PLANE('',#1030);
#941=PLANE('',#1034);
#942=PLANE('',#1038);
#943=PLANE('',#1042);
#944=PLANE('',#1048);
#945=PLANE('',#1052);
#946=PLANE('',#1056);
#947=PLANE('',#1059);
#948=PLANE('',#1065);
#949=PLANE('',#1066);
#950=PLANE('',#1068);
#951=PLANE('',#1071);
#952=PLANE('',#1072);
#953=PLANE('',#1073);
#954=PLANE('',#1074);
#955=PLANE('',#1075);
#956=PLANE('',#1076);
#957=PLANE('',#1080);
#958=PLANE('',#1084);
#959=PLANE('',#1085);
#960=PLANE('',#1086);
#961=PLANE('',#1091);
#962=PLANE('',#1098);
#963=PLANE('',#1099);
#964=PLANE('',#1100);
#965=PLANE('',#1101);
#966=PLANE('',#1104);
#967=PLANE('',#1109);
#968=PLANE('',#1112);
#969=PLANE('',#1115);
#970=PLANE('',#1119);
#971=PLANE('',#1122);
#972=PLANE('',#1124);
#973=ADVANCED_FACE('',(#79),#940,.T.);
#974=ADVANCED_FACE('',(#80),#73,.T.);
#975=ADVANCED_FACE('',(#81),#941,.T.);
#976=ADVANCED_FACE('',(#82),#74,.T.);
#977=ADVANCED_FACE('',(#83),#942,.T.);
#978=ADVANCED_FACE('',(#84),#75,.T.);
#979=ADVANCED_FACE('',(#85),#943,.T.);
#980=ADVANCED_FACE('',(#86),#76,.T.);
#981=ADVANCED_FACE('',(#87),#944,.T.);
#982=ADVANCED_FACE('',(#88),#77,.F.);
#983=ADVANCED_FACE('',(#89),#945,.T.);
#984=ADVANCED_FACE('',(#90),#78,.T.);
#985=ADVANCED_FACE('',(#91),#946,.T.);
#986=ADVANCED_FACE('',(#92),#17,.F.);
#987=ADVANCED_FACE('',(#93),#947,.T.);
#988=ADVANCED_FACE('',(#94),#18,.T.);
#989=ADVANCED_FACE('',(#95),#19,.F.);
#990=ADVANCED_FACE('',(#96),#948,.F.);
#991=ADVANCED_FACE('',(#97),#949,.T.);
#992=ADVANCED_FACE('',(#98),#950,.T.);
#993=ADVANCED_FACE('',(#99),#20,.F.);
#994=ADVANCED_FACE('',(#100,#15),#951,.T.);
#995=ADVANCED_FACE('',(#101),#952,.F.);
#996=ADVANCED_FACE('',(#102),#953,.F.);
#997=ADVANCED_FACE('',(#103),#954,.F.);
#998=ADVANCED_FACE('',(#104),#955,.F.);
#999=ADVANCED_FACE('',(#105),#956,.F.);
#1000=ADVANCED_FACE('',(#106),#21,.F.);
#1001=ADVANCED_FACE('',(#107),#957,.F.);
#1002=ADVANCED_FACE('',(#108),#22,.F.);
#1003=ADVANCED_FACE('',(#109),#958,.F.);
#1004=ADVANCED_FACE('',(#110),#959,.T.);
#1005=ADVANCED_FACE('',(#111),#960,.F.);
#1006=ADVANCED_FACE('',(#112),#961,.F.);
#1007=ADVANCED_FACE('',(#113),#962,.F.);
#1008=ADVANCED_FACE('',(#114),#963,.F.);
#1009=ADVANCED_FACE('',(#115),#964,.T.);
#1010=ADVANCED_FACE('',(#116),#965,.T.);
#1011=ADVANCED_FACE('',(#117),#23,.T.);
#1012=ADVANCED_FACE('',(#118),#966,.T.);
#1013=ADVANCED_FACE('',(#119),#24,.F.);
#1014=ADVANCED_FACE('',(#120),#25,.F.);
#1015=ADVANCED_FACE('',(#121),#967,.T.);
#1016=ADVANCED_FACE('',(#122),#26,.F.);
#1017=ADVANCED_FACE('',(#123),#968,.T.);
#1018=ADVANCED_FACE('',(#124),#27,.F.);
#1019=ADVANCED_FACE('',(#125),#969,.T.);
#1020=ADVANCED_FACE('',(#126),#28,.F.);
#1021=ADVANCED_FACE('',(#127),#29,.T.);
#1022=ADVANCED_FACE('',(#128),#970,.T.);
#1023=ADVANCED_FACE('',(#129),#30,.T.);
#1024=ADVANCED_FACE('',(#130),#31,.T.);
#1025=ADVANCED_FACE('',(#131),#971,.T.);
#1026=ADVANCED_FACE('',(#132),#32,.T.);
#1027=ADVANCED_FACE('',(#133,#16),#972,.F.);
#1028=CLOSED_SHELL('',(#973,#974,#975,#976,#977,#978,#979,#980,#981,#982,
#983,#984,#985,#986,#987,#988,#989,#990,#991,#992,#993,#994,#995,#996,#997,
#998,#999,#1000,#1001,#1002,#1003,#1004,#1005,#1006,#1007,#1008,#1009,#1010,
#1011,#1012,#1013,#1014,#1015,#1016,#1017,#1018,#1019,#1020,#1021,#1022,
#1023,#1024,#1025,#1026,#1027));
#1029=AXIS2_PLACEMENT_3D('',#1424,#1125,#1126);
#1030=AXIS2_PLACEMENT_3D('',#1425,#1127,#1128);
#1031=AXIS2_PLACEMENT_3D('',#1434,#1133,#1134);
#1032=AXIS2_PLACEMENT_3D('',#1438,#1136,#1137);
#1033=AXIS2_PLACEMENT_3D('',#1439,#1138,#1139);
#1034=AXIS2_PLACEMENT_3D('',#1440,#1140,#1141);
#1035=AXIS2_PLACEMENT_3D('',#1446,#1145,#1146);
#1036=AXIS2_PLACEMENT_3D('',#1450,#1148,#1149);
#1037=AXIS2_PLACEMENT_3D('',#1451,#1150,#1151);
#1038=AXIS2_PLACEMENT_3D('',#1452,#1152,#1153);
#1039=AXIS2_PLACEMENT_3D('',#1458,#1157,#1158);
#1040=AXIS2_PLACEMENT_3D('',#1462,#1160,#1161);
#1041=AXIS2_PLACEMENT_3D('',#1463,#1162,#1163);
#1042=AXIS2_PLACEMENT_3D('',#1464,#1164,#1165);
#1043=AXIS2_PLACEMENT_3D('',#1467,#1166,#1167);
#1044=AXIS2_PLACEMENT_3D('',#1476,#1172,#1173);
#1045=AXIS2_PLACEMENT_3D('',#1478,#1175,#1176);
#1046=AXIS2_PLACEMENT_3D('',#1482,#1178,#1179);
#1047=AXIS2_PLACEMENT_3D('',#1483,#1180,#1181);
#1048=AXIS2_PLACEMENT_3D('',#1484,#1182,#1183);
#1049=AXIS2_PLACEMENT_3D('',#1490,#1187,#1188);
#1050=AXIS2_PLACEMENT_3D('',#1494,#1190,#1191);
#1051=AXIS2_PLACEMENT_3D('',#1495,#1192,#1193);
#1052=AXIS2_PLACEMENT_3D('',#1496,#1194,#1195);
#1053=AXIS2_PLACEMENT_3D('',#1502,#1199,#1200);
#1054=AXIS2_PLACEMENT_3D('',#1503,#1201,#1202);
#1055=AXIS2_PLACEMENT_3D('',#1504,#1203,#1204);
#1056=AXIS2_PLACEMENT_3D('',#1505,#1205,#1206);
#1057=AXIS2_PLACEMENT_3D('',#1511,#1210,#1211);
#1058=AXIS2_PLACEMENT_3D('',#1514,#1213,#1214);
#1059=AXIS2_PLACEMENT_3D('',#1515,#1215,#1216);
#1060=AXIS2_PLACEMENT_3D('',#1519,#1219,#1220);
#1061=AXIS2_PLACEMENT_3D('',#1522,#1222,#1223);
#1062=AXIS2_PLACEMENT_3D('',#1523,#1224,#1225);
#1063=AXIS2_PLACEMENT_3D('',#1527,#1227,#1228);
#1064=AXIS2_PLACEMENT_3D('',#1530,#1230,#1231);
#1065=AXIS2_PLACEMENT_3D('',#1531,#1232,#1233);
#1066=AXIS2_PLACEMENT_3D('',#1535,#1236,#1237);
#1067=AXIS2_PLACEMENT_3D('',#1542,#1241,#1242);
#1068=AXIS2_PLACEMENT_3D('',#1543,#1243,#1244);
#1069=AXIS2_PLACEMENT_3D('',#1547,#1247,#1248);
#1070=AXIS2_PLACEMENT_3D('',#1550,#1250,#1251);
#1071=AXIS2_PLACEMENT_3D('',#1551,#1252,#1253);
#1072=AXIS2_PLACEMENT_3D('',#1560,#1258,#1259);
#1073=AXIS2_PLACEMENT_3D('',#1566,#1263,#1264);
#1074=AXIS2_PLACEMENT_3D('',#1570,#1267,#1268);
#1075=AXIS2_PLACEMENT_3D('',#1574,#1271,#1272);
#1076=AXIS2_PLACEMENT_3D('',#1576,#1274,#1275);
#1077=AXIS2_PLACEMENT_3D('',#1585,#1280,#1281);
#1078=AXIS2_PLACEMENT_3D('',#1587,#1282,#1283);
#1079=AXIS2_PLACEMENT_3D('',#1590,#1285,#1286);
#1080=AXIS2_PLACEMENT_3D('',#1591,#1287,#1288);
#1081=AXIS2_PLACEMENT_3D('',#1597,#1292,#1293);
#1082=AXIS2_PLACEMENT_3D('',#1599,#1294,#1295);
#1083=AXIS2_PLACEMENT_3D('',#1602,#1297,#1298);
#1084=AXIS2_PLACEMENT_3D('',#1603,#1299,#1300);
#1085=AXIS2_PLACEMENT_3D('',#1609,#1304,#1305);
#1086=AXIS2_PLACEMENT_3D('',#1616,#1310,#1311);
#1087=AXIS2_PLACEMENT_3D('',#1620,#1313,#1314);
#1088=AXIS2_PLACEMENT_3D('',#1624,#1316,#1317);
#1089=AXIS2_PLACEMENT_3D('',#1629,#1320,#1321);
#1090=AXIS2_PLACEMENT_3D('',#1632,#1323,#1324);
#1091=AXIS2_PLACEMENT_3D('',#1633,#1325,#1326);
#1092=AXIS2_PLACEMENT_3D('',#1635,#1327,#1328);
#1093=AXIS2_PLACEMENT_3D('',#1638,#1330,#1331);
#1094=AXIS2_PLACEMENT_3D('',#1644,#1334,#1335);
#1095=AXIS2_PLACEMENT_3D('',#1648,#1337,#1338);
#1096=AXIS2_PLACEMENT_3D('',#1652,#1340,#1341);
#1097=AXIS2_PLACEMENT_3D('',#1656,#1343,#1344);
#1098=AXIS2_PLACEMENT_3D('',#1658,#1346,#1347);
#1099=AXIS2_PLACEMENT_3D('',#1660,#1349,#1350);
#1100=AXIS2_PLACEMENT_3D('',#1662,#1352,#1353);
#1101=AXIS2_PLACEMENT_3D('',#1668,#1357,#1358);
#1102=AXIS2_PLACEMENT_3D('',#1674,#1362,#1363);
#1103=AXIS2_PLACEMENT_3D('',#1676,#1364,#1365);
#1104=AXIS2_PLACEMENT_3D('',#1678,#1367,#1368);
#1105=AXIS2_PLACEMENT_3D('',#1682,#1371,#1372);
#1106=AXIS2_PLACEMENT_3D('',#1683,#1373,#1374);
#1107=AXIS2_PLACEMENT_3D('',#1684,#1375,#1376);
#1108=AXIS2_PLACEMENT_3D('',#1686,#1377,#1378);
#1109=AXIS2_PLACEMENT_3D('',#1688,#1380,#1381);
#1110=AXIS2_PLACEMENT_3D('',#1692,#1384,#1385);
#1111=AXIS2_PLACEMENT_3D('',#1694,#1386,#1387);
#1112=AXIS2_PLACEMENT_3D('',#1696,#1389,#1390);
#1113=AXIS2_PLACEMENT_3D('',#1700,#1393,#1394);
#1114=AXIS2_PLACEMENT_3D('',#1702,#1395,#1396);
#1115=AXIS2_PLACEMENT_3D('',#1704,#1398,#1399);
#1116=AXIS2_PLACEMENT_3D('',#1708,#1402,#1403);
#1117=AXIS2_PLACEMENT_3D('',#1709,#1404,#1405);
#1118=AXIS2_PLACEMENT_3D('',#1710,#1406,#1407);
#1119=AXIS2_PLACEMENT_3D('',#1712,#1409,#1410);
#1120=AXIS2_PLACEMENT_3D('',#1714,#1412,#1413);
#1121=AXIS2_PLACEMENT_3D('',#1715,#1414,#1415);
#1122=AXIS2_PLACEMENT_3D('',#1717,#1417,#1418);
#1123=AXIS2_PLACEMENT_3D('',#1719,#1420,#1421);
#1124=AXIS2_PLACEMENT_3D('',#1720,#1422,#1423);
#1125=DIRECTION('axis',(0.,0.,1.));
#1126=DIRECTION('refdir',(1.,0.,0.));
#1127=DIRECTION('center_axis',(-6.51842001142414E-16,-0.70710678118655,
0.707106781186545));
#1128=DIRECTION('ref_axis',(1.,0.,9.21843798540023E-16));
#1129=DIRECTION('',(0.,0.707106781186545,0.70710678118655));
#1130=DIRECTION('',(-1.,9.21843798540016E-16,0.));
#1131=DIRECTION('',(0.,-0.707106781186545,-0.70710678118655));
#1132=DIRECTION('',(1.,-9.21843798540016E-16,0.));
#1133=DIRECTION('center_axis',(0.,0.,-1.));
#1134=DIRECTION('ref_axis',(0.,-1.,0.));
#1135=DIRECTION('',(-0.707106781186561,0.,0.707106781186534));
#1136=DIRECTION('center_axis',(0.,0.,-1.));
#1137=DIRECTION('ref_axis',(0.,-1.,0.));
#1138=DIRECTION('center_axis',(0.,0.,1.));
#1139=DIRECTION('ref_axis',(0.,-1.,0.));
#1140=DIRECTION('center_axis',(0.707106781186545,0.,0.70710678118655));
#1141=DIRECTION('ref_axis',(0.70710678118655,0.,-0.707106781186545));
#1142=DIRECTION('',(-0.70710678118655,0.,0.707106781186545));
#1143=DIRECTION('',(0.,-1.,0.));
#1144=DIRECTION('',(0.,1.,0.));
#1145=DIRECTION('center_axis',(0.,0.,-1.));
#1146=DIRECTION('ref_axis',(1.,-1.11022302462518E-14,0.));
#1147=DIRECTION('',(0.,-0.707106781186553,0.707106781186542));
#1148=DIRECTION('center_axis',(0.,0.,-1.));
#1149=DIRECTION('ref_axis',(1.,-1.11022302462518E-14,0.));
#1150=DIRECTION('center_axis',(0.,0.,1.));
#1151=DIRECTION('ref_axis',(1.,-1.11022302462518E-14,0.));
#1152=DIRECTION('center_axis',(3.16524283500305E-16,0.707106781186545,0.70710678118655));
#1153=DIRECTION('ref_axis',(1.,0.,-4.47632934546556E-16));
#1154=DIRECTION('',(0.,-0.70710678118655,0.707106781186545));
#1155=DIRECTION('',(1.,-4.4763293454656E-16,0.));
#1156=DIRECTION('',(-1.,4.4763293454656E-16,0.));
#1157=DIRECTION('center_axis',(0.,0.,-1.));
#1158=DIRECTION('ref_axis',(0.,1.,0.));
#1159=DIRECTION('',(0.707106781186545,0.,0.70710678118655));
#1160=DIRECTION('center_axis',(0.,0.,-1.));
#1161=DIRECTION('ref_axis',(0.,1.,0.));
#1162=DIRECTION('center_axis',(0.,0.,1.));
#1163=DIRECTION('ref_axis',(0.,1.,0.));
#1164=DIRECTION('center_axis',(-0.707106781186545,4.38803001417781E-16,
0.70710678118655));
#1165=DIRECTION('ref_axis',(0.70710678118655,0.,0.707106781186545));
#1166=DIRECTION('center_axis',(0.707106781186545,-4.38803001417781E-16,
-0.70710678118655));
#1167=DIRECTION('ref_axis',(0.70710678118655,0.,0.707106781186545));
#1168=DIRECTION('',(-6.20561155815049E-16,-1.,0.));
#1169=DIRECTION('',(0.70710678118655,0.,0.707106781186545));
#1170=DIRECTION('',(6.20561155815049E-16,1.,0.));
#1171=DIRECTION('',(-6.20561155815049E-16,-1.,0.));
#1172=DIRECTION('center_axis',(0.707106781186545,-4.38803001417781E-16,
-0.70710678118655));
#1173=DIRECTION('ref_axis',(0.70710678118655,2.61000760534932E-15,0.707106781186545));
#1174=DIRECTION('',(-6.20561155815049E-16,-1.,0.));
#1175=DIRECTION('center_axis',(0.,0.,-1.));
#1176=DIRECTION('ref_axis',(-1.,0.,0.));
#1177=DIRECTION('',(0.,0.70710678118654,0.707106781186555));
#1178=DIRECTION('center_axis',(0.,0.,-1.));
#1179=DIRECTION('ref_axis',(-1.,0.,0.));
#1180=DIRECTION('center_axis',(0.,0.,1.));
#1181=DIRECTION('ref_axis',(-1.,0.,0.));
#1182=DIRECTION('center_axis',(0.,-0.70710678118655,0.707106781186545));
#1183=DIRECTION('ref_axis',(1.,0.,0.));
#1184=DIRECTION('',(0.,0.707106781186545,0.70710678118655));
#1185=DIRECTION('',(-1.,0.,0.));
#1186=DIRECTION('',(1.,0.,0.));
#1187=DIRECTION('center_axis',(0.,0.,1.));
#1188=DIRECTION('ref_axis',(0.707106781186574,0.707106781186521,0.));
#1189=DIRECTION('',(0.500000000000017,0.499999999999985,0.707106781186546));
#1190=DIRECTION('center_axis',(0.,0.,1.));
#1191=DIRECTION('ref_axis',(0.707106781186574,0.707106781186521,0.));
#1192=DIRECTION('center_axis',(0.,0.,-1.));
#1193=DIRECTION('ref_axis',(0.707106781186574,0.707106781186521,0.));
#1194=DIRECTION('center_axis',(-0.499999999999994,-0.499999999999999,0.707106781186552));
#1195=DIRECTION('ref_axis',(0.816496580927731,0.,0.577350269189619));
#1196=DIRECTION('',(0.500000000000003,0.500000000000003,0.707106781186543));
#1197=DIRECTION('',(-0.707106781186551,0.707106781186544,0.));
#1198=DIRECTION('',(0.707106781186551,-0.707106781186544,0.));
#1199=DIRECTION('center_axis',(0.,0.,-1.));
#1200=DIRECTION('ref_axis',(-0.707106781186544,-0.707106781186551,0.));
#1201=DIRECTION('center_axis',(0.,0.,-1.));
#1202=DIRECTION('ref_axis',(-0.707106781186544,-0.707106781186551,0.));
#1203=DIRECTION('center_axis',(0.,0.,1.));
#1204=DIRECTION('ref_axis',(-0.707106781186544,-0.707106781186551,0.));
#1205=DIRECTION('center_axis',(-0.707106781186544,-0.707106781186551,0.));
#1206=DIRECTION('ref_axis',(0.707106781186551,-0.707106781186544,0.));
#1207=DIRECTION('',(0.,0.,1.));
#1208=DIRECTION('',(-0.707106781186551,0.707106781186544,0.));
#1209=DIRECTION('',(0.,0.,-1.));
#1210=DIRECTION('center_axis',(0.,0.,1.));
#1211=DIRECTION('ref_axis',(0.707106781186574,0.707106781186521,0.));
#1212=DIRECTION('',(0.,0.,1.));
#1213=DIRECTION('center_axis',(0.,0.,1.));
#1214=DIRECTION('ref_axis',(0.707106781186574,0.707106781186521,0.));
#1215=DIRECTION('center_axis',(0.,-1.,0.));
#1216=DIRECTION('ref_axis',(1.,0.,0.));
#1217=DIRECTION('',(0.,0.,1.));
#1218=DIRECTION('',(-1.,0.,0.));
#1219=DIRECTION('center_axis',(0.,0.,1.));
#1220=DIRECTION('ref_axis',(-1.,0.,0.));
#1221=DIRECTION('',(0.,0.,1.));
#1222=DIRECTION('center_axis',(0.,0.,-1.));
#1223=DIRECTION('ref_axis',(-1.,0.,0.));
#1224=DIRECTION('center_axis',(-1.,0.,0.));
#1225=DIRECTION('ref_axis',(0.,-1.,0.));
#1226=DIRECTION('',(-1.,0.,0.));
#1227=DIRECTION('center_axis',(-1.,-2.48459823400436E-13,0.));
#1228=DIRECTION('ref_axis',(0.,-1.,0.));
#1229=DIRECTION('',(-1.,0.,0.));
#1230=DIRECTION('center_axis',(1.,-6.20561155815049E-16,0.));
#1231=DIRECTION('ref_axis',(0.,-1.,0.));
#1232=DIRECTION('center_axis',(0.,0.,1.));
#1233=DIRECTION('ref_axis',(0.,1.,0.));
#1234=DIRECTION('',(-1.,0.,0.));
#1235=DIRECTION('',(-2.48459823400436E-13,1.,0.));
#1236=DIRECTION('center_axis',(-1.,6.20561155815049E-16,0.));
#1237=DIRECTION('ref_axis',(-6.20561155815049E-16,-1.,0.));
#1238=DIRECTION('',(0.,0.,1.));
#1239=DIRECTION('',(6.20561155815049E-16,1.,0.));
#1240=DIRECTION('',(0.,0.,1.));
#1241=DIRECTION('center_axis',(1.,-6.20561155815049E-16,0.));
#1242=DIRECTION('ref_axis',(0.,3.69110815338195E-15,1.));
#1243=DIRECTION('center_axis',(-1.,6.20561155815049E-16,0.));
#1244=DIRECTION('ref_axis',(-6.20561155815049E-16,-1.,0.));
#1245=DIRECTION('',(0.,0.,-1.));
#1246=DIRECTION('',(6.20561155815049E-16,1.,0.));
#1247=DIRECTION('center_axis',(-1.,0.,0.));
#1248=DIRECTION('ref_axis',(0.,3.69110815338195E-15,1.));
#1249=DIRECTION('',(-1.,0.,0.));
#1250=DIRECTION('center_axis',(-1.,-2.48459823400436E-13,0.));
#1251=DIRECTION('ref_axis',(0.,3.69110815338195E-15,1.));
#1252=DIRECTION('center_axis',(0.,0.,1.));
#1253=DIRECTION('ref_axis',(-1.,0.,0.));
#1254=DIRECTION('',(-1.,1.144237745222E-17,0.));
#1255=DIRECTION('',(1.144237745222E-17,1.,0.));
#1256=DIRECTION('',(1.,-1.144237745222E-17,0.));
#1257=DIRECTION('',(7.462142290632E-17,-1.,0.));
#1258=DIRECTION('center_axis',(1.144237745222E-17,1.,0.));
#1259=DIRECTION('ref_axis',(1.,-1.144237745222E-17,-2.96736492054994E-67));
#1260=DIRECTION('',(0.,0.,-1.));
#1261=DIRECTION('',(-1.,1.144237745222E-17,0.));
#1262=DIRECTION('',(0.,0.,-1.));
#1263=DIRECTION('center_axis',(1.,7.462142290632E-17,0.));
#1264=DIRECTION('ref_axis',(7.462142290632E-17,-1.,-3.29790678282211E-49));
#1265=DIRECTION('',(-7.462142290632E-17,1.,0.));
#1266=DIRECTION('',(0.,0.,-1.));
#1267=DIRECTION('center_axis',(-1.144237745222E-17,-1.,0.));
#1268=DIRECTION('ref_axis',(-1.,1.144237745222E-17,2.96736492054994E-67));
#1269=DIRECTION('',(1.,-1.144237745222E-17,0.));
#1270=DIRECTION('',(0.,0.,-1.));
#1271=DIRECTION('center_axis',(-1.,1.144237745222E-17,0.));
#1272=DIRECTION('ref_axis',(1.144237745222E-17,1.,3.29790678282211E-49));
#1273=DIRECTION('',(-1.144237745222E-17,-1.,0.));
#1274=DIRECTION('center_axis',(0.,-1.,0.));
#1275=DIRECTION('ref_axis',(0.,0.,-1.));
#1276=DIRECTION('',(0.,0.,-1.));
#1277=DIRECTION('',(1.,0.,0.));
#1278=DIRECTION('',(0.,0.,1.));
#1279=DIRECTION('',(1.,0.,0.));
#1280=DIRECTION('center_axis',(1.,0.,0.));
#1281=DIRECTION('ref_axis',(0.,1.69176841847646E-14,1.));
#1282=DIRECTION('center_axis',(1.,5.54801794645294E-15,0.));
#1283=DIRECTION('ref_axis',(0.,1.69176841847646E-14,1.));
#1284=DIRECTION('',(1.,0.,0.));
#1285=DIRECTION('center_axis',(-1.,0.,0.));
#1286=DIRECTION('ref_axis',(0.,1.69176841847646E-14,1.));
#1287=DIRECTION('center_axis',(0.,0.,1.));
#1288=DIRECTION('ref_axis',(0.,-1.,0.));
#1289=DIRECTION('',(5.54801794645294E-15,-1.,0.));
#1290=DIRECTION('',(1.,0.,0.));
#1291=DIRECTION('',(0.,1.,0.));
#1292=DIRECTION('center_axis',(1.,0.,0.));
#1293=DIRECTION('ref_axis',(0.,1.,-6.34413156928666E-15));
#1294=DIRECTION('center_axis',(1.,5.54801794645294E-15,0.));
#1295=DIRECTION('ref_axis',(0.,1.,-6.34413156928666E-15));
#1296=DIRECTION('',(1.,0.,0.));
#1297=DIRECTION('center_axis',(-1.,0.,0.));
#1298=DIRECTION('ref_axis',(0.,1.,-6.34413156928666E-15));
#1299=DIRECTION('center_axis',(0.,1.,9.79431393422834E-16));
#1300=DIRECTION('ref_axis',(0.,-9.79431393422834E-16,1.));
#1301=DIRECTION('',(5.43390294802929E-30,-9.79431393422834E-16,1.));
#1302=DIRECTION('',(-1.,0.,0.));
#1303=DIRECTION('',(0.,9.79431393422834E-16,-1.));
#1304=DIRECTION('center_axis',(1.,0.,0.));
#1305=DIRECTION('ref_axis',(0.,1.,0.));
#1306=DIRECTION('',(0.,0.,1.));
#1307=DIRECTION('',(0.,-1.,0.));
#1308=DIRECTION('',(0.,-1.,0.));
#1309=DIRECTION('',(0.,0.,1.));
#1310=DIRECTION('center_axis',(0.,0.,1.));
#1311=DIRECTION('ref_axis',(-1.,0.,0.));
#1312=DIRECTION('',(-5.54801794645294E-15,1.,0.));
#1313=DIRECTION('center_axis',(0.,0.,1.));
#1314=DIRECTION('ref_axis',(1.,5.55111512312652E-14,0.));
#1315=DIRECTION('',(-1.,-6.13329889090122E-16,0.));
#1316=DIRECTION('center_axis',(0.,0.,1.));
#1317=DIRECTION('ref_axis',(-7.77156117237579E-14,1.,0.));
#1318=DIRECTION('',(2.48459823400436E-13,-1.,0.));
#1319=DIRECTION('',(-1.,0.,0.));
#1320=DIRECTION('center_axis',(0.,0.,-1.));
#1321=DIRECTION('ref_axis',(0.,1.,0.));
#1322=DIRECTION('',(1.,-4.4763293454656E-16,0.));
#1323=DIRECTION('center_axis',(0.,0.,-1.));
#1324=DIRECTION('ref_axis',(1.,-1.11022302462518E-14,0.));
#1325=DIRECTION('center_axis',(0.,0.,1.));
#1326=DIRECTION('ref_axis',(-1.,0.,0.));
#1327=DIRECTION('center_axis',(0.,0.,-1.));
#1328=DIRECTION('ref_axis',(0.,-1.,0.));
#1329=DIRECTION('',(-1.,9.21843798540016E-16,0.));
#1330=DIRECTION('center_axis',(0.,0.,-1.));
#1331=DIRECTION('ref_axis',(-0.707106781186544,-0.707106781186551,0.));
#1332=DIRECTION('',(1.,0.,0.));
#1333=DIRECTION('',(2.48459823400436E-13,-1.,0.));
#1334=DIRECTION('center_axis',(0.,0.,1.));
#1335=DIRECTION('ref_axis',(-1.,0.,0.));
#1336=DIRECTION('',(1.,1.8173150664722E-14,0.));
#1337=DIRECTION('center_axis',(0.,0.,-1.));
#1338=DIRECTION('ref_axis',(0.707106781186578,0.707106781186517,0.));
#1339=DIRECTION('',(0.707106781186546,-0.707106781186549,0.));
#1340=DIRECTION('center_axis',(0.,0.,1.));
#1341=DIRECTION('ref_axis',(-0.707106781186536,-0.707106781186559,0.));
#1342=DIRECTION('',(1.,4.2737590775411E-15,0.));
#1343=DIRECTION('center_axis',(0.,0.,1.));
#1344=DIRECTION('ref_axis',(2.22044604925024E-14,-1.,0.));
#1345=DIRECTION('',(-5.54801794645294E-15,1.,0.));
#1346=DIRECTION('center_axis',(0.,-1.,0.));
#1347=DIRECTION('ref_axis',(0.,0.,1.));
#1348=DIRECTION('',(0.,0.,1.));
#1349=DIRECTION('center_axis',(0.,1.,0.));
#1350=DIRECTION('ref_axis',(0.,0.,-1.));
#1351=DIRECTION('',(0.,0.,-1.));
#1352=DIRECTION('center_axis',(1.,2.48459823400436E-13,0.));
#1353=DIRECTION('ref_axis',(2.48459823400436E-13,-1.,0.));
#1354=DIRECTION('',(0.,0.,-1.));
#1355=DIRECTION('',(-2.48459823400436E-13,1.,0.));
#1356=DIRECTION('',(0.,0.,-1.));
#1357=DIRECTION('center_axis',(0.707106781186549,0.707106781186546,0.));
#1358=DIRECTION('ref_axis',(0.707106781186546,-0.707106781186549,0.));
#1359=DIRECTION('',(-0.707106781186546,0.707106781186549,0.));
#1360=DIRECTION('',(0.,0.,-1.));
#1361=DIRECTION('',(0.,0.,-1.));
#1362=DIRECTION('center_axis',(0.,0.,-1.));
#1363=DIRECTION('ref_axis',(0.707106781186578,0.707106781186517,0.));
#1364=DIRECTION('center_axis',(0.,0.,1.));
#1365=DIRECTION('ref_axis',(0.707106781186578,0.707106781186517,0.));
#1366=DIRECTION('',(0.,0.,-1.));
#1367=DIRECTION('center_axis',(-1.8173150664722E-14,1.,0.));
#1368=DIRECTION('ref_axis',(1.,1.8173150664722E-14,0.));
#1369=DIRECTION('',(-1.,-1.8173150664722E-14,0.));
#1370=DIRECTION('',(0.,0.,-1.));
#1371=DIRECTION('center_axis',(0.,0.,-1.));
#1372=DIRECTION('ref_axis',(-1.,0.,0.));
#1373=DIRECTION('center_axis',(0.,0.,-1.));
#1374=DIRECTION('ref_axis',(-1.,0.,0.));
#1375=DIRECTION('center_axis',(0.,0.,-1.));
#1376=DIRECTION('ref_axis',(-7.77156117237579E-14,1.,0.));
#1377=DIRECTION('center_axis',(0.,0.,-1.));
#1378=DIRECTION('ref_axis',(-7.77156117237579E-14,1.,0.));
#1379=DIRECTION('',(0.,0.,-1.));
#1380=DIRECTION('center_axis',(6.13329889090122E-16,-1.,0.));
#1381=DIRECTION('ref_axis',(-1.,-6.13329889090122E-16,0.));
#1382=DIRECTION('',(1.,6.13329889090122E-16,0.));
#1383=DIRECTION('',(0.,0.,-1.));
#1384=DIRECTION('center_axis',(0.,0.,-1.));
#1385=DIRECTION('ref_axis',(1.,5.55111512312652E-14,0.));
#1386=DIRECTION('center_axis',(0.,0.,-1.));
#1387=DIRECTION('ref_axis',(1.,5.55111512312652E-14,0.));
#1388=DIRECTION('',(0.,0.,-1.));
#1389=DIRECTION('center_axis',(-1.,-5.54801794645294E-15,0.));
#1390=DIRECTION('ref_axis',(-5.54801794645294E-15,1.,0.));
#1391=DIRECTION('',(0.,0.,-1.));
#1392=DIRECTION('',(5.54801794645294E-15,-1.,0.));
#1393=DIRECTION('center_axis',(0.,0.,-1.));
#1394=DIRECTION('ref_axis',(2.22044604925024E-14,-1.,0.));
#1395=DIRECTION('center_axis',(0.,0.,-1.));
#1396=DIRECTION('ref_axis',(2.22044604925024E-14,-1.,0.));
#1397=DIRECTION('',(0.,0.,-1.));
#1398=DIRECTION('center_axis',(-4.2737590775411E-15,1.,0.));
#1399=DIRECTION('ref_axis',(1.,4.2737590775411E-15,0.));
#1400=DIRECTION('',(-1.,-4.2737590775411E-15,0.));
#1401=DIRECTION('',(0.,0.,-1.));
#1402=DIRECTION('center_axis',(0.,0.,-1.));
#1403=DIRECTION('ref_axis',(-0.707106781186536,-0.707106781186559,0.));
#1404=DIRECTION('center_axis',(0.,0.,-1.));
#1405=DIRECTION('ref_axis',(-0.707106781186536,-0.707106781186559,0.));
#1406=DIRECTION('center_axis',(0.,0.,1.));
#1407=DIRECTION('ref_axis',(0.,1.,0.));
#1408=DIRECTION('',(0.,0.,1.));
#1409=DIRECTION('center_axis',(4.4763293454656E-16,1.,0.));
#1410=DIRECTION('ref_axis',(-1.,4.4763293454656E-16,0.));
#1411=DIRECTION('',(0.,0.,1.));
#1412=DIRECTION('center_axis',(0.,0.,1.));
#1413=DIRECTION('ref_axis',(1.,-1.11022302462518E-14,0.));
#1414=DIRECTION('center_axis',(0.,0.,1.));
#1415=DIRECTION('ref_axis',(0.,-1.,0.));
#1416=DIRECTION('',(0.,0.,1.));
#1417=DIRECTION('center_axis',(-9.21843798540016E-16,-1.,0.));
#1418=DIRECTION('ref_axis',(1.,-9.21843798540016E-16,0.));
#1419=DIRECTION('',(0.,0.,1.));
#1420=DIRECTION('center_axis',(0.,0.,1.));
#1421=DIRECTION('ref_axis',(-0.707106781186544,-0.707106781186551,0.));
#1422=DIRECTION('center_axis',(0.,0.,1.));
#1423=DIRECTION('ref_axis',(-1.,0.,0.));
#1424=CARTESIAN_POINT('',(0.,0.,0.));
#1425=CARTESIAN_POINT('Origin',(157.942012517728,-118.736998826209,27.6035));
#1426=CARTESIAN_POINT('',(192.263625758452,-119.336998826209,27.0035));
#1427=CARTESIAN_POINT('',(192.263625758452,-118.136998826209,28.2035));
#1428=CARTESIAN_POINT('',(192.263625758452,-119.336998826209,27.0035));
#1429=CARTESIAN_POINT('',(153.531714204138,-118.136998826209,28.2035));
#1430=CARTESIAN_POINT('',(157.942012517728,-118.136998826209,28.2035));
#1431=CARTESIAN_POINT('',(153.531714204138,-119.336998826209,27.0035));
#1432=CARTESIAN_POINT('',(153.531714204138,-118.136998826209,28.2035));
#1433=CARTESIAN_POINT('',(157.942012517728,-119.336998826209,27.0035));
#1434=CARTESIAN_POINT('Origin',(192.263625758452,-116.924998826209,27.6035));
#1435=CARTESIAN_POINT('',(194.675625758452,-116.924998826209,27.0035));
#1436=CARTESIAN_POINT('',(193.475625758452,-116.924998826209,28.2035));
#1437=CARTESIAN_POINT('',(194.675625758452,-116.924998826209,27.0035));
#1438=CARTESIAN_POINT('Origin',(192.263625758452,-116.924998826209,28.2035));
#1439=CARTESIAN_POINT('Origin',(192.263625758452,-116.924998826209,27.0035));
#1440=CARTESIAN_POINT('Origin',(194.075625758452,-105.260715173026,27.6035));
#1441=CARTESIAN_POINT('',(194.675625758452,-70.2678642134761,27.0035));
#1442=CARTESIAN_POINT('',(193.475625758452,-70.2678642134761,28.2035));
#1443=CARTESIAN_POINT('',(194.675625758452,-70.2678642134761,27.0035));
#1444=CARTESIAN_POINT('',(193.475625758452,-105.260715173026,28.2035));
#1445=CARTESIAN_POINT('',(194.675625758452,-105.260715173026,27.0035));
#1446=CARTESIAN_POINT('Origin',(192.263625758452,-70.2678642134761,27.6035));
#1447=CARTESIAN_POINT('',(192.263625758452,-67.8558642134761,27.0035));
#1448=CARTESIAN_POINT('',(192.263625758452,-69.0558642134761,28.2035));
#1449=CARTESIAN_POINT('',(192.263625758452,-67.8558642134761,27.0035));
#1450=CARTESIAN_POINT('Origin',(192.263625758452,-70.2678642134761,28.2035));
#1451=CARTESIAN_POINT('Origin',(192.263625758452,-70.2678642134761,27.0035));
#1452=CARTESIAN_POINT('Origin',(177.307968294885,-68.4558642134761,27.6035));
#1453=CARTESIAN_POINT('',(132.440995904184,-67.8558642134761,27.0035));
#1454=CARTESIAN_POINT('',(132.440995904184,-69.0558642134761,28.2035));
#1455=CARTESIAN_POINT('',(132.440995904184,-67.8558642134761,27.0035));
#1456=CARTESIAN_POINT('',(177.307968294885,-69.0558642134761,28.2035));
#1457=CARTESIAN_POINT('',(177.307968294885,-67.8558642134761,27.0035));
#1458=CARTESIAN_POINT('Origin',(132.440995904184,-70.2678642134761,27.6035));
#1459=CARTESIAN_POINT('',(130.028995904184,-70.2678642134761,27.0035));
#1460=CARTESIAN_POINT('',(131.228995904184,-70.2678642134761,28.2035));
#1461=CARTESIAN_POINT('',(130.028995904184,-70.2678642134761,27.0035));
#1462=CARTESIAN_POINT('Origin',(132.440995904184,-70.2678642134761,28.2035));
#1463=CARTESIAN_POINT('Origin',(132.440995904184,-70.2678642134761,27.0035));
#1464=CARTESIAN_POINT('Origin',(130.628995904184,-81.9321478666593,27.6035));
#1465=CARTESIAN_POINT('',(130.296008923811,-95.6087748347575,27.2705130196273));
#1466=CARTESIAN_POINT('',(130.028995904184,-96.7104609021166,27.0035));
#1467=CARTESIAN_POINT('Origin',(127.88974396816,-95.6087748347575,24.8642480639761));
#1468=CARTESIAN_POINT('',(130.028995904184,-99.0359978110828,27.0035));
#1469=CARTESIAN_POINT('',(130.028995904184,-81.9321478666593,27.0035));
#1470=CARTESIAN_POINT('',(131.228995904184,-99.0359978110828,28.2035));
#1471=CARTESIAN_POINT('',(130.028995904184,-99.0359978110828,27.0035));
#1472=CARTESIAN_POINT('',(131.228995904184,-81.9321478666593,28.2035));
#1473=CARTESIAN_POINT('',(130.028995904184,-73.3196186787008,27.0035));
#1474=CARTESIAN_POINT('',(130.028995904184,-81.9321478666593,27.0035));
#1475=CARTESIAN_POINT('',(130.296008923811,-74.4213047460599,27.2705130196273));
#1476=CARTESIAN_POINT('Origin',(127.88974396816,-74.4213047460599,24.8642480639761));
#1477=CARTESIAN_POINT('',(130.296008923811,-88.7704613507084,27.2705130196273));
#1478=CARTESIAN_POINT('Origin',(132.440995904184,-99.0359978110828,27.6035));
#1479=CARTESIAN_POINT('',(132.440995904184,-101.447997811083,27.0035));
#1480=CARTESIAN_POINT('',(132.440995904184,-100.247997811083,28.2035));
#1481=CARTESIAN_POINT('',(132.440995904184,-101.447997811083,27.0035));
#1482=CARTESIAN_POINT('Origin',(132.440995904184,-99.0359978110828,28.2035));
#1483=CARTESIAN_POINT('Origin',(132.440995904184,-99.0359978110828,27.0035));
#1484=CARTESIAN_POINT('Origin',(147.396653367751,-100.847997811083,27.6035));
#1485=CARTESIAN_POINT('',(133.811060816198,-101.447997811083,27.0035));
#1486=CARTESIAN_POINT('',(133.811060816198,-100.247997811083,28.2035));
#1487=CARTESIAN_POINT('',(133.811060816198,-101.447997811083,27.0035));
#1488=CARTESIAN_POINT('',(147.396653367751,-100.247997811083,28.2035));
#1489=CARTESIAN_POINT('',(147.396653367751,-101.447997811083,27.0035));
#1490=CARTESIAN_POINT('Origin',(133.811060816198,-103.457997811083,27.6035));
#1491=CARTESIAN_POINT('',(135.232345446383,-102.036713180898,27.0035));
#1492=CARTESIAN_POINT('',(136.080873583807,-101.188185043474,28.2035));
#1493=CARTESIAN_POINT('',(135.232345446383,-102.036713180898,27.0035));
#1494=CARTESIAN_POINT('Origin',(133.811060816198,-103.457997811083,28.2035));
#1495=CARTESIAN_POINT('Origin',(133.811060816198,-103.457997811083,27.0035));
#1496=CARTESIAN_POINT('Origin',(140.326530446065,-106.282370043156,27.6035));
#1497=CARTESIAN_POINT('',(151.826172647916,-118.630540382431,27.0035));
#1498=CARTESIAN_POINT('',(152.67470078534,-117.782012245007,28.2035));
#1499=CARTESIAN_POINT('',(151.826172647916,-118.630540382431,27.0035));
#1500=CARTESIAN_POINT('',(140.750794514777,-105.858105974444,28.2035));
#1501=CARTESIAN_POINT('',(139.902266377353,-106.706634111868,27.0035));
#1502=CARTESIAN_POINT('Origin',(153.531714204138,-116.924998826209,27.6035));
#1503=CARTESIAN_POINT('Origin',(153.531714204138,-116.924998826209,28.2035));
#1504=CARTESIAN_POINT('Origin',(153.531714204138,-116.924998826209,27.0035));
#1505=CARTESIAN_POINT('Origin',(135.232345446383,-102.036713180898,27.5));
#1506=CARTESIAN_POINT('',(135.232345446383,-102.036713180898,20.465));
#1507=CARTESIAN_POINT('',(135.232345446383,-102.036713180898,27.5));
#1508=CARTESIAN_POINT('',(151.826172647916,-118.630540382431,20.465));
#1509=CARTESIAN_POINT('',(151.826172647916,-118.630540382431,20.465));
#1510=CARTESIAN_POINT('',(151.826172647916,-118.630540382431,27.5));
#1511=CARTESIAN_POINT('Origin',(133.811060816198,-103.457997811083,27.5));
#1512=CARTESIAN_POINT('',(133.811060816198,-101.447997811083,20.465));
#1513=CARTESIAN_POINT('',(133.811060816198,-101.447997811083,27.5));
#1514=CARTESIAN_POINT('Origin',(133.811060816198,-103.457997811083,20.465));
#1515=CARTESIAN_POINT('Origin',(132.440995904184,-101.447997811083,27.5));
#1516=CARTESIAN_POINT('',(132.440995904184,-101.447997811083,20.465));
#1517=CARTESIAN_POINT('',(132.440995904184,-101.447997811083,27.5));
#1518=CARTESIAN_POINT('',(133.811060816198,-101.447997811083,20.465));
#1519=CARTESIAN_POINT('Origin',(132.440995904184,-99.0359978110828,27.5));
#1520=CARTESIAN_POINT('',(130.028995904184,-99.0359978110828,20.465));
#1521=CARTESIAN_POINT('',(130.028995904184,-99.0359978110828,27.5));
#1522=CARTESIAN_POINT('Origin',(132.440995904184,-99.0359978110828,20.465));
#1523=CARTESIAN_POINT('Origin',(131.8,-95.6087748347575,24.8642480639761));
#1524=CARTESIAN_POINT('',(131.63699590419,-95.6087748347575,27.2705130196273));
#1525=CARTESIAN_POINT('',(131.8,-95.6087748347575,27.2705130196273));
#1526=CARTESIAN_POINT('',(131.63699590419,-98.0150397904087,24.8642480639761));
#1527=CARTESIAN_POINT('Origin',(131.636995904184,-95.6087748347575,24.8642480639761));
#1528=CARTESIAN_POINT('',(130.028995904184,-98.0150397904087,24.8642480639761));
#1529=CARTESIAN_POINT('',(131.8,-98.0150397904087,24.8642480639761));
#1530=CARTESIAN_POINT('Origin',(130.028995904184,-95.6087748347575,24.8642480639761));
#1531=CARTESIAN_POINT('Origin',(131.8,-95.6087748347575,27.2705130196273));
#1532=CARTESIAN_POINT('',(131.636995904185,-74.4213047460599,27.2705130196273));
#1533=CARTESIAN_POINT('',(131.8,-74.4213047460599,27.2705130196273));
#1534=CARTESIAN_POINT('',(131.636995904187,-83.3403195241169,27.2705130196273));
#1535=CARTESIAN_POINT('Origin',(130.028995904184,-70.2678642134761,27.5));
#1536=CARTESIAN_POINT('',(130.028995904184,-70.2678642134761,20.465));
#1537=CARTESIAN_POINT('',(130.028995904184,-70.2678642134761,27.5));
#1538=CARTESIAN_POINT('',(130.028995904184,-72.0150397904087,20.465));
#1539=CARTESIAN_POINT('',(130.028995904184,-99.0359978110828,20.465));
#1540=CARTESIAN_POINT('',(130.028995904184,-72.0150397904087,24.8642480639761));
#1541=CARTESIAN_POINT('',(130.028995904184,-72.0150397904087,26.1821240319881));
#1542=CARTESIAN_POINT('Origin',(130.028995904184,-74.4213047460599,24.8642480639761));
#1543=CARTESIAN_POINT('Origin',(130.028995904184,-70.2678642134761,27.5));
#1544=CARTESIAN_POINT('',(130.028995904184,-98.0150397904087,20.465));
#1545=CARTESIAN_POINT('',(130.028995904184,-98.0150397904087,21.7500001192093));
#1546=CARTESIAN_POINT('',(130.028995904184,-99.0359978110828,20.465));
#1547=CARTESIAN_POINT('Origin',(131.8,-74.4213047460599,24.8642480639761));
#1548=CARTESIAN_POINT('',(131.636995904184,-72.0150397904087,24.8642480639761));
#1549=CARTESIAN_POINT('',(131.8,-72.0150397904087,24.8642480639761));
#1550=CARTESIAN_POINT('Origin',(131.636995904184,-74.4213047460599,24.8642480639761));
#1551=CARTESIAN_POINT('Origin',(162.352310831318,-93.5964315198425,28.2035));
#1552=CARTESIAN_POINT('',(169.85,-107.4,28.2035));
#1553=CARTESIAN_POINT('',(158.55,-107.4,28.2035));
#1554=CARTESIAN_POINT('',(166.101155415659,-107.4,28.2035));
#1555=CARTESIAN_POINT('',(158.55,-81.6,28.2035));
#1556=CARTESIAN_POINT('',(158.55,-100.498215759921,28.2035));
#1557=CARTESIAN_POINT('',(169.85,-81.6,28.2035));
#1558=CARTESIAN_POINT('',(160.451155415659,-81.6,28.2035));
#1559=CARTESIAN_POINT('',(169.85,-87.5982157599212,28.2035));
#1560=CARTESIAN_POINT('Origin',(158.55,-81.6,28.6713681591446));
#1561=CARTESIAN_POINT('',(158.55,-81.6,27.5));
#1562=CARTESIAN_POINT('',(158.55,-81.6,28.6713681591446));
#1563=CARTESIAN_POINT('',(169.85,-81.6,27.5));
#1564=CARTESIAN_POINT('',(160.451155415659,-81.6,27.5));
#1565=CARTESIAN_POINT('',(169.85,-81.6,28.6713681591446));
#1566=CARTESIAN_POINT('Origin',(169.85,-81.6,28.6713681591446));
#1567=CARTESIAN_POINT('',(169.85,-107.4,27.5));
#1568=CARTESIAN_POINT('',(169.85,-87.5982157599212,27.5));
#1569=CARTESIAN_POINT('',(169.85,-107.4,28.6713681591446));
#1570=CARTESIAN_POINT('Origin',(169.85,-107.4,28.6713681591446));
#1571=CARTESIAN_POINT('',(158.55,-107.4,27.5));
#1572=CARTESIAN_POINT('',(166.101155415659,-107.4,27.5));
#1573=CARTESIAN_POINT('',(158.55,-107.4,28.6713681591446));
#1574=CARTESIAN_POINT('Origin',(158.55,-107.4,28.6713681591446));
#1575=CARTESIAN_POINT('',(158.55,-100.498215759921,27.5));
#1576=CARTESIAN_POINT('Origin',(192.925,-97.6999981068076,24.2148596847954));
#1577=CARTESIAN_POINT('',(193.067625758452,-97.6999981068076,24.2148596847954));
#1578=CARTESIAN_POINT('',(193.067625758452,-97.6999981068076,20.465));
#1579=CARTESIAN_POINT('',(193.067625758452,-97.6999981068076,25.8574298423977));
#1580=CARTESIAN_POINT('',(194.675625758452,-97.6999981068076,24.2148596847954));
#1581=CARTESIAN_POINT('',(192.925,-97.6999981068076,24.2148596847954));
#1582=CARTESIAN_POINT('',(194.675625758452,-97.6999981068076,20.465));
#1583=CARTESIAN_POINT('',(194.675625758452,-97.6999981068076,25.8574298423977));
#1584=CARTESIAN_POINT('',(177.638655415659,-97.6999981068076,20.465));
#1585=CARTESIAN_POINT('Origin',(192.925,-95.5999981068077,24.2148596847954));
#1586=CARTESIAN_POINT('',(193.067625758452,-95.5999981068076,26.3148596847954));
#1587=CARTESIAN_POINT('Origin',(193.067625758452,-95.5999981068077,24.2148596847954));
#1588=CARTESIAN_POINT('',(194.675625758452,-95.5999981068076,26.3148596847954));
#1589=CARTESIAN_POINT('',(192.925,-95.5999981068076,26.3148596847954));
#1590=CARTESIAN_POINT('Origin',(194.675625758452,-95.5999981068077,24.2148596847954));
#1591=CARTESIAN_POINT('Origin',(192.925,-73.7999981068076,26.3148596847954));
#1592=CARTESIAN_POINT('',(193.067625758452,-73.7999981068076,26.3148596847954));
#1593=CARTESIAN_POINT('',(193.067625758452,-94.9604984665082,26.3148596847954));
#1594=CARTESIAN_POINT('',(194.675625758452,-73.7999981068076,26.3148596847954));
#1595=CARTESIAN_POINT('',(192.925,-73.7999981068076,26.3148596847954));
#1596=CARTESIAN_POINT('',(194.675625758452,-95.3624984665083,26.3148596847954));
#1597=CARTESIAN_POINT('Origin',(192.925,-73.7999981068076,24.2148596847954));
#1598=CARTESIAN_POINT('',(193.067625758452,-71.6999981068076,24.2148596847954));
#1599=CARTESIAN_POINT('Origin',(193.067625758452,-73.7999981068076,24.2148596847954));
#1600=CARTESIAN_POINT('',(194.675625758452,-71.6999981068076,24.2148596847954));
#1601=CARTESIAN_POINT('',(192.925,-71.6999981068076,24.2148596847954));
#1602=CARTESIAN_POINT('Origin',(194.675625758452,-73.7999981068076,24.2148596847954));
#1603=CARTESIAN_POINT('Origin',(192.925,-71.6999981068076,15.1465530564343));
#1604=CARTESIAN_POINT('',(193.067625758452,-71.6999981068076,20.465));
#1605=CARTESIAN_POINT('',(193.067625758452,-71.6999981068076,21.3232765282172));
#1606=CARTESIAN_POINT('',(194.675625758452,-71.6999981068076,20.465));
#1607=CARTESIAN_POINT('',(177.638655415659,-71.6999981068076,20.465));
#1608=CARTESIAN_POINT('',(194.675625758452,-71.6999981068076,21.3232765282172));
#1609=CARTESIAN_POINT('Origin',(194.675625758452,-116.924998826209,27.5));
#1610=CARTESIAN_POINT('',(194.675625758452,-116.924998826209,20.465));
#1611=CARTESIAN_POINT('',(194.675625758452,-116.924998826209,27.5));
#1612=CARTESIAN_POINT('',(194.675625758452,-70.2678642134761,20.465));
#1613=CARTESIAN_POINT('',(194.675625758452,-70.2678642134761,20.465));
#1614=CARTESIAN_POINT('',(194.675625758452,-70.2678642134761,20.465));
#1615=CARTESIAN_POINT('',(194.675625758452,-70.2678642134761,27.5));
#1616=CARTESIAN_POINT('Origin',(162.352310831318,-93.5964315198425,20.465));
#1617=CARTESIAN_POINT('',(193.067625758452,-71.071864213476,20.465));
#1618=CARTESIAN_POINT('',(193.067625758452,-71.071864213476,20.465));
#1619=CARTESIAN_POINT('',(191.459625758452,-69.4638642134763,20.465));
#1620=CARTESIAN_POINT('Origin',(191.459625758452,-71.0718642134761,20.465));
#1621=CARTESIAN_POINT('',(133.244995904177,-69.4638642134761,20.465));
#1622=CARTESIAN_POINT('',(133.244995904177,-69.4638642134761,20.465));
#1623=CARTESIAN_POINT('',(131.636995904177,-71.0718642134761,20.465));
#1624=CARTESIAN_POINT('Origin',(133.244995904177,-71.0718642134761,20.465));
#1625=CARTESIAN_POINT('',(131.636995904184,-72.0150397904087,20.465));
#1626=CARTESIAN_POINT('',(131.636995904184,-71.0718642134761,20.465));
#1627=CARTESIAN_POINT('',(147.076155415659,-72.0150397904087,20.465));
#1628=CARTESIAN_POINT('',(132.440995904184,-67.8558642134761,20.465));
#1629=CARTESIAN_POINT('Origin',(132.440995904184,-70.2678642134761,20.465));
#1630=CARTESIAN_POINT('',(192.263625758452,-67.8558642134761,20.465));
#1631=CARTESIAN_POINT('',(132.440995904184,-67.8558642134761,20.465));
#1632=CARTESIAN_POINT('Origin',(192.263625758452,-70.2678642134761,20.465));
#1633=CARTESIAN_POINT('Origin',(162.352310831318,-93.5964315198425,20.465));
#1634=CARTESIAN_POINT('',(192.263625758452,-119.336998826209,20.465));
#1635=CARTESIAN_POINT('Origin',(192.263625758452,-116.924998826209,20.465));
#1636=CARTESIAN_POINT('',(153.531714204138,-119.336998826209,20.465));
#1637=CARTESIAN_POINT('',(192.263625758452,-119.336998826209,20.465));
#1638=CARTESIAN_POINT('Origin',(153.531714204138,-116.924998826209,20.465));
#1639=CARTESIAN_POINT('',(131.63699590419,-98.0150397904087,20.465));
#1640=CARTESIAN_POINT('',(147.076155415659,-98.0150397904087,20.465));
#1641=CARTESIAN_POINT('',(131.636995904191,-98.2319978110989,20.465));
#1642=CARTESIAN_POINT('',(131.636995904184,-71.0718642134761,20.465));
#1643=CARTESIAN_POINT('',(133.244995904174,-99.8399978110827,20.465));
#1644=CARTESIAN_POINT('Origin',(133.244995904174,-98.2319978110989,20.465));
#1645=CARTESIAN_POINT('',(134.227345446383,-99.8399978110827,20.465));
#1646=CARTESIAN_POINT('',(134.227345446383,-99.8399978110827,20.465));
#1647=CARTESIAN_POINT('',(136.075015465623,-100.605327791842,20.465));
#1648=CARTESIAN_POINT('Origin',(134.227345446383,-102.452997811082,20.465));
#1649=CARTESIAN_POINT('',(152.727715388189,-117.258027714407,20.465));
#1650=CARTESIAN_POINT('',(152.727714204138,-117.258026530357,20.465));
#1651=CARTESIAN_POINT('',(153.864741908286,-117.728998826209,20.465));
#1652=CARTESIAN_POINT('Origin',(153.864741908286,-116.120998826209,20.465));
#1653=CARTESIAN_POINT('',(191.459625758452,-117.728998826209,20.465));
#1654=CARTESIAN_POINT('',(153.864741908286,-117.728998826209,20.465));
#1655=CARTESIAN_POINT('',(193.067625758452,-116.120998826209,20.465));
#1656=CARTESIAN_POINT('Origin',(191.459625758452,-116.120998826209,20.465));
#1657=CARTESIAN_POINT('',(193.067625758452,-71.071864213476,20.465));
#1658=CARTESIAN_POINT('Origin',(131.8,-98.0150397904087,16.0000002384186));
#1659=CARTESIAN_POINT('',(131.63699590419,-98.0150397904087,21.7500001192093));
#1660=CARTESIAN_POINT('Origin',(131.8,-72.0150397904087,24.8642480639761));
#1661=CARTESIAN_POINT('',(131.636995904184,-72.0150397904087,26.1821240319881));
#1662=CARTESIAN_POINT('Origin',(131.636995904184,-71.0718642134761,27.5));
#1663=CARTESIAN_POINT('',(131.636995904177,-71.0718642134761,27.5));
#1664=CARTESIAN_POINT('',(131.636995904177,-71.0718642134761,27.5));
#1665=CARTESIAN_POINT('',(131.636995904191,-98.2319978110989,27.5));
#1666=CARTESIAN_POINT('',(131.636995904187,-82.3341478666632,27.5));
#1667=CARTESIAN_POINT('',(131.636995904191,-98.2319978110989,27.5));
#1668=CARTESIAN_POINT('Origin',(136.075015465623,-100.605327791842,27.5));
#1669=CARTESIAN_POINT('',(152.727715388189,-117.258027714407,27.5));
#1670=CARTESIAN_POINT('',(136.075015465623,-100.605327791842,27.5));
#1671=CARTESIAN_POINT('',(140.892115239047,-105.422427565266,27.5));
#1672=CARTESIAN_POINT('',(152.727715388189,-117.258027714407,27.5));
#1673=CARTESIAN_POINT('',(136.075015465623,-100.605327791842,27.5));
#1674=CARTESIAN_POINT('Origin',(134.227345446383,-102.452997811082,27.5));
#1675=CARTESIAN_POINT('',(134.227345446383,-99.8399978110827,27.5));
#1676=CARTESIAN_POINT('Origin',(134.227345446383,-102.452997811082,27.5));
#1677=CARTESIAN_POINT('',(134.227345446383,-99.8399978110827,27.5));
#1678=CARTESIAN_POINT('Origin',(133.244995904174,-99.8399978110827,27.5));
#1679=CARTESIAN_POINT('',(133.244995904174,-99.8399978110827,27.5));
#1680=CARTESIAN_POINT('',(147.798653367746,-99.8399978110825,27.5));
#1681=CARTESIAN_POINT('',(133.244995904174,-99.8399978110827,27.5));
#1682=CARTESIAN_POINT('Origin',(133.244995904174,-98.2319978110989,27.5));
#1683=CARTESIAN_POINT('Origin',(133.244995904174,-98.2319978110989,27.5));
#1684=CARTESIAN_POINT('Origin',(133.244995904177,-71.0718642134761,27.5));
#1685=CARTESIAN_POINT('',(133.244995904177,-69.4638642134761,27.5));
#1686=CARTESIAN_POINT('Origin',(133.244995904177,-71.0718642134761,27.5));
#1687=CARTESIAN_POINT('',(133.244995904177,-69.4638642134761,27.5));
#1688=CARTESIAN_POINT('Origin',(191.459625758452,-69.4638642134761,27.5));
#1689=CARTESIAN_POINT('',(191.459625758452,-69.4638642134763,27.5));
#1690=CARTESIAN_POINT('',(176.905968294885,-69.4638642134761,27.5));
#1691=CARTESIAN_POINT('',(191.459625758452,-69.4638642134763,27.5));
#1692=CARTESIAN_POINT('Origin',(191.459625758452,-71.0718642134761,27.5));
#1693=CARTESIAN_POINT('',(193.067625758452,-71.071864213476,27.5));
#1694=CARTESIAN_POINT('Origin',(191.459625758452,-71.0718642134761,27.5));
#1695=CARTESIAN_POINT('',(193.067625758452,-71.071864213476,27.5));
#1696=CARTESIAN_POINT('Origin',(193.067625758452,-116.120998826209,27.5));
#1697=CARTESIAN_POINT('',(193.067625758452,-116.120998826209,27.5));
#1698=CARTESIAN_POINT('',(193.067625758452,-116.120998826209,27.5));
#1699=CARTESIAN_POINT('',(193.067625758452,-104.858715173026,27.5));
#1700=CARTESIAN_POINT('Origin',(191.459625758452,-116.120998826209,27.5));
#1701=CARTESIAN_POINT('',(191.459625758452,-117.728998826209,27.5));
#1702=CARTESIAN_POINT('Origin',(191.459625758452,-116.120998826209,27.5));
#1703=CARTESIAN_POINT('',(191.459625758452,-117.728998826209,27.5));
#1704=CARTESIAN_POINT('Origin',(153.864741908286,-117.728998826209,27.5));
#1705=CARTESIAN_POINT('',(153.864741908286,-117.728998826209,27.5));
#1706=CARTESIAN_POINT('',(158.108526369802,-117.728998826209,27.5));
#1707=CARTESIAN_POINT('',(153.864741908286,-117.728998826209,27.5));
#1708=CARTESIAN_POINT('Origin',(153.864741908286,-116.120998826209,27.5));
#1709=CARTESIAN_POINT('Origin',(153.864741908286,-116.120998826209,27.5));
#1710=CARTESIAN_POINT('Origin',(132.440995904184,-70.2678642134761,27.5));
#1711=CARTESIAN_POINT('',(132.440995904184,-67.8558642134761,27.5));
#1712=CARTESIAN_POINT('Origin',(192.263625758452,-67.8558642134761,27.5));
#1713=CARTESIAN_POINT('',(192.263625758452,-67.8558642134761,27.5));
#1714=CARTESIAN_POINT('Origin',(192.263625758452,-70.2678642134761,27.5));
#1715=CARTESIAN_POINT('Origin',(192.263625758452,-116.924998826209,27.5));
#1716=CARTESIAN_POINT('',(192.263625758452,-119.336998826209,27.5));
#1717=CARTESIAN_POINT('Origin',(153.531714204138,-119.336998826209,27.5));
#1718=CARTESIAN_POINT('',(153.531714204138,-119.336998826209,27.5));
#1719=CARTESIAN_POINT('Origin',(153.531714204138,-116.924998826209,27.5));
#1720=CARTESIAN_POINT('Origin',(162.352310831318,-93.5964315198425,27.5));
#1721=UNCERTAINTY_MEASURE_WITH_UNIT(LENGTH_MEASURE(0.01),#1725,
'DISTANCE_ACCURACY_VALUE',
'Maximum model space distance between geometric entities at asserted c
onnectivities');
#1722=UNCERTAINTY_MEASURE_WITH_UNIT(LENGTH_MEASURE(0.01),#1725,
'DISTANCE_ACCURACY_VALUE',
'Maximum model space distance between geometric entities at asserted c
onnectivities');
#1723=(
GEOMETRIC_REPRESENTATION_CONTEXT(3)
GLOBAL_UNCERTAINTY_ASSIGNED_CONTEXT((#1721))
GLOBAL_UNIT_ASSIGNED_CONTEXT((#1725,#1726,#1727))
REPRESENTATION_CONTEXT('','3D')
);
#1724=(
GEOMETRIC_REPRESENTATION_CONTEXT(3)
GLOBAL_UNCERTAINTY_ASSIGNED_CONTEXT((#1722))
GLOBAL_UNIT_ASSIGNED_CONTEXT((#1725,#1726,#1727))
REPRESENTATION_CONTEXT('','3D')
);
#1725=(
LENGTH_UNIT()
NAMED_UNIT(*)
SI_UNIT(.MILLI.,.METRE.)
);
#1726=(
NAMED_UNIT(*)
PLANE_ANGLE_UNIT()
SI_UNIT($,.RADIAN.)
);
#1727=(
NAMED_UNIT(*)
SI_UNIT($,.STERADIAN.)
SOLID_ANGLE_UNIT()
);
#1728=SHAPE_DEFINITION_REPRESENTATION(#1729,#1730);
#1729=PRODUCT_DEFINITION_SHAPE('',$,#1732);
#1730=SHAPE_REPRESENTATION('',(#1029),#1723);
#1731=PRODUCT_DEFINITION_CONTEXT('part definition',#1736,'design');
#1732=PRODUCT_DEFINITION('PCB PD65W charger case',
'PCB PD65W charger case v7',#1733,#1731);
#1733=PRODUCT_DEFINITION_FORMATION('',$,#1738);
#1734=PRODUCT_RELATED_PRODUCT_CATEGORY('PCB PD65W charger case v7',
'PCB PD65W charger case v7',(#1738));
#1735=APPLICATION_PROTOCOL_DEFINITION('international standard',
'automotive_design',2009,#1736);
#1736=APPLICATION_CONTEXT(
'Core Data for Automotive Mechanical Design Process');
#1737=PRODUCT_CONTEXT('part definition',#1736,'mechanical');
#1738=PRODUCT('PCB PD65W charger case','PCB PD65W charger case v7',$,(#1737));
#1739=PRESENTATION_STYLE_ASSIGNMENT((#1741));
#1740=PRESENTATION_STYLE_ASSIGNMENT((#1742));
#1741=SURFACE_STYLE_USAGE(.BOTH.,#1743);
#1742=SURFACE_STYLE_USAGE(.BOTH.,#1744);
#1743=SURFACE_SIDE_STYLE('',(#1745));
#1744=SURFACE_SIDE_STYLE('',(#1746));
#1745=SURFACE_STYLE_FILL_AREA(#1747);
#1746=SURFACE_STYLE_FILL_AREA(#1748);
#1747=FILL_AREA_STYLE('Steel - Satin',(#1749));
#1748=FILL_AREA_STYLE('Plastic - Matte (Green)',(#1750));
#1749=FILL_AREA_STYLE_COLOUR('Steel - Satin',#1751);
#1750=FILL_AREA_STYLE_COLOUR('Plastic - Matte (Green)',#1752);
#1751=COLOUR_RGB('Steel - Satin',0.627450980392157,0.627450980392157,0.627450980392157);
#1752=COLOUR_RGB('Plastic - Matte (Green)',0.266666666666667,0.588235294117647,
0.282352941176471);
ENDSEC;
END-ISO-10303-21;
