%TF.GenerationSoftware,KiCad,Pcbnew,10.0.6-10.0.6~ubuntu24.04.1*%
%TF.CreationDate,2026-08-30T16:53:17+02:00*%
%TF.ProjectId,PD65W_Charger,50443635-575f-4436-9861-726765722e6b,rev?*%
%TF.SameCoordinates,Original*%
%TF.FileFunction,Soldermask,Top*%
%TF.FilePolarity,Negative*%
%FSLAX46Y46*%
G04 Gerber Fmt 4.6, Leading zero omitted, Abs format (unit mm)*
G04 Created by KiCad (PCBNEW 10.0.6-10.0.6~ubuntu24.04.1) date 2026-08-30 16:53:17*
%MOMM*%
%LPD*%
G01*
G04 APERTURE LIST*
G04 Aperture macros list*
%AMRoundRect*
0 Rectangle with rounded corners*
0 $1 Rounding radius*
0 $2 $3 $4 $5 $6 $7 $8 $9 X,Y pos of 4 corners*
0 Add a 4 corners polygon primitive as box body*
4,1,4,$2,$3,$4,$5,$6,$7,$8,$9,$2,$3,0*
0 Add four circle primitives for the rounded corners*
1,1,$1+$1,$2,$3*
1,1,$1+$1,$4,$5*
1,1,$1+$1,$6,$7*
1,1,$1+$1,$8,$9*
0 Add four rect primitives between the rounded corners*
20,1,$1+$1,$2,$3,$4,$5,0*
20,1,$1+$1,$4,$5,$6,$7,0*
20,1,$1+$1,$6,$7,$8,$9,0*
20,1,$1+$1,$8,$9,$2,$3,0*%
G04 Aperture macros list end*
%ADD10R,1.700000X1.700000*%
%ADD11C,1.700000*%
%ADD12RoundRect,0.250000X-0.350000X-0.450000X0.350000X-0.450000X0.350000X0.450000X-0.350000X0.450000X0*%
%ADD13RoundRect,0.250000X0.475000X-0.337500X0.475000X0.337500X-0.475000X0.337500X-0.475000X-0.337500X0*%
%ADD14RoundRect,0.250000X-0.450000X0.350000X-0.450000X-0.350000X0.450000X-0.350000X0.450000X0.350000X0*%
%ADD15RoundRect,0.249999X0.450001X1.425001X-0.450001X1.425001X-0.450001X-1.425001X0.450001X-1.425001X0*%
%ADD16O,2.000000X3.000000*%
%ADD17RoundRect,0.249999X-0.850001X-0.850001X0.850001X-0.850001X0.850001X0.850001X-0.850001X0.850001X0*%
%ADD18C,2.200000*%
%ADD19RoundRect,0.075000X0.075000X-0.650000X0.075000X0.650000X-0.075000X0.650000X-0.075000X-0.650000X0*%
%ADD20C,1.600000*%
%ADD21RoundRect,0.250000X-0.337500X-0.475000X0.337500X-0.475000X0.337500X0.475000X-0.337500X0.475000X0*%
%ADD22C,3.200000*%
%ADD23R,1.300000X1.300000*%
%ADD24C,1.300000*%
%ADD25RoundRect,0.170000X0.680000X0.680000X-0.680000X0.680000X-0.680000X-0.680000X0.680000X-0.680000X0*%
%ADD26RoundRect,0.162500X0.162500X-0.837500X0.162500X0.837500X-0.162500X0.837500X-0.162500X-0.837500X0*%
%ADD27R,3.500000X3.500000*%
%ADD28RoundRect,0.750000X0.750000X1.000000X-0.750000X1.000000X-0.750000X-1.000000X0.750000X-1.000000X0*%
%ADD29RoundRect,0.875000X0.875000X0.875000X-0.875000X0.875000X-0.875000X-0.875000X0.875000X-0.875000X0*%
%ADD30RoundRect,0.152400X0.609600X-1.063600X0.609600X1.063600X-0.609600X1.063600X-0.609600X-1.063600X0*%
%ADD31C,1.524000*%
%ADD32RoundRect,0.152400X-0.609600X1.063600X-0.609600X-1.063600X0.609600X-1.063600X0.609600X1.063600X0*%
%ADD33R,1.500000X2.400000*%
%ADD34RoundRect,0.250000X0.350000X0.450000X-0.350000X0.450000X-0.350000X-0.450000X0.350000X-0.450000X0*%
%ADD35RoundRect,0.250000X-0.475000X0.337500X-0.475000X-0.337500X0.475000X-0.337500X0.475000X0.337500X0*%
%ADD36RoundRect,0.250000X-1.125000X-1.125000X1.125000X-1.125000X1.125000X1.125000X-1.125000X1.125000X0*%
G04 APERTURE END LIST*
D10*
%TO.C,J3*%
X143970000Y-99020000D03*
D11*
X146510000Y-99020000D03*
%TD*%
D12*
%TO.C,R2*%
X173000000Y-80000000D03*
X175000000Y-80000000D03*
%TD*%
D13*
%TO.C,C1*%
X167250000Y-82787500D03*
X167250000Y-80712500D03*
%TD*%
D14*
%TO.C,R4*%
X168600000Y-105800000D03*
X168600000Y-107800000D03*
%TD*%
D13*
%TO.C,C2*%
X171500000Y-89287500D03*
X171500000Y-87212500D03*
%TD*%
D15*
%TO.C,R5*%
X168650000Y-94000000D03*
X162550000Y-94000000D03*
%TD*%
D16*
%TO.C,U1*%
X159355000Y-93922500D03*
X143855000Y-93922500D03*
%TD*%
D17*
%TO.C,D1*%
X146000000Y-102400000D03*
D18*
X153620000Y-102400000D03*
%TD*%
D14*
%TO.C,R7*%
X157600000Y-98400000D03*
X157600000Y-100400000D03*
%TD*%
D19*
%TO.C,U5*%
X164800000Y-102750000D03*
X165300000Y-102750000D03*
X165800000Y-102750000D03*
X166300000Y-102750000D03*
X166800000Y-102750000D03*
X166800000Y-98450000D03*
X166300000Y-98450000D03*
X165800000Y-98450000D03*
X165300000Y-98450000D03*
X164800000Y-98450000D03*
%TD*%
D20*
%TO.C,TH2*%
X165540000Y-86500000D03*
X163000000Y-86500000D03*
%TD*%
D21*
%TO.C,C3*%
X162162500Y-80600000D03*
X164237500Y-80600000D03*
%TD*%
D22*
%TO.C,H1*%
X187250000Y-75260000D03*
%TD*%
D23*
%TO.C,Q1*%
X152770000Y-108270000D03*
D24*
X151500000Y-107000000D03*
X152770000Y-105730000D03*
%TD*%
D12*
%TO.C,R6*%
X153600000Y-98400000D03*
X155600000Y-98400000D03*
%TD*%
D13*
%TO.C,C6*%
X169500000Y-89287500D03*
X169500000Y-87212500D03*
%TD*%
D25*
%TO.C,U2*%
X168000000Y-110800000D03*
D11*
X165460000Y-110800000D03*
X162920000Y-110800000D03*
X160380000Y-110800000D03*
%TD*%
D13*
%TO.C,C4*%
X168600000Y-100400000D03*
X168600000Y-98325000D03*
%TD*%
D26*
%TO.C,U4*%
X169050000Y-84460000D03*
X170000000Y-84460000D03*
X170950000Y-84460000D03*
X170950000Y-81040000D03*
X170000000Y-81040000D03*
X169050000Y-81040000D03*
%TD*%
D27*
%TO.C,J1*%
X177000000Y-84707500D03*
D28*
X183000000Y-84707500D03*
D29*
X180000000Y-80007500D03*
%TD*%
D30*
%TO.C,U3*%
X188160000Y-95925000D03*
D31*
X188160000Y-96760000D03*
D30*
X185620000Y-95925000D03*
D31*
X185620000Y-96760000D03*
D30*
X183080000Y-95925000D03*
D31*
X183080000Y-96760000D03*
D30*
X180540000Y-95925000D03*
D31*
X180540000Y-96760000D03*
D30*
X178000000Y-95925000D03*
D31*
X178000000Y-96760000D03*
D30*
X175460000Y-95925000D03*
D31*
X175460000Y-96760000D03*
D30*
X172920000Y-95925000D03*
D31*
X172920000Y-96760000D03*
X172920000Y-112000000D03*
D32*
X172920000Y-112835000D03*
D31*
X175460000Y-112000000D03*
D32*
X175460000Y-112835000D03*
D31*
X178000000Y-112000000D03*
D32*
X178000000Y-112835000D03*
D31*
X180540000Y-112000000D03*
D32*
X180540000Y-112835000D03*
D31*
X183080000Y-112000000D03*
D32*
X183080000Y-112835000D03*
D31*
X185620000Y-112000000D03*
D32*
X185620000Y-112835000D03*
D31*
X188160000Y-112000000D03*
D32*
X188160000Y-112835000D03*
%TD*%
D33*
%TO.C,L1*%
X170000000Y-76000000D03*
X164500000Y-76000000D03*
%TD*%
D34*
%TO.C,R8*%
X158200000Y-113600000D03*
X156200000Y-113600000D03*
%TD*%
D35*
%TO.C,C5*%
X159600000Y-98362500D03*
X159600000Y-100437500D03*
%TD*%
D36*
%TO.C,J2*%
X150400000Y-98400000D03*
%TD*%
D20*
%TO.C,TH1*%
X174460000Y-76000000D03*
X177000000Y-76000000D03*
%TD*%
D14*
%TO.C,R9*%
X157000000Y-108800000D03*
X157000000Y-110800000D03*
%TD*%
%TO.C,R3*%
X166700000Y-105800000D03*
X166700000Y-107800000D03*
%TD*%
M02*
