%TF.GenerationSoftware,KiCad,Pcbnew,10.0.6-10.0.6~ubuntu24.04.1*%
%TF.CreationDate,2026-08-30T16:53:04+02:00*%
%TF.ProjectId,PD65W_Charger,50443635-575f-4436-9861-726765722e6b,rev?*%
%TF.SameCoordinates,Original*%
%TF.FileFunction,Paste,Top*%
%TF.FilePolarity,Positive*%
%FSLAX46Y46*%
G04 Gerber Fmt 4.6, Leading zero omitted, Abs format (unit mm)*
G04 Created by KiCad (PCBNEW 10.0.6-10.0.6~ubuntu24.04.1) date 2026-08-30 16:53:04*
%MOMM*%
%LPD*%
G01*
G04 APERTURE LIST*
G04 Aperture macros list*
%AMRoundRect*
0 Rectangle with rounded corners*
0 $1 Rounding radius*
0 $2 $3 $4 $5 $6 $7 $8 $9 X,Y pos of 4 corners*
0 Add a 4 corners polygon primitive as box body*
4,1,4,$2,$3,$4,$5,$6,$7,$8,$9,$2,$3,0*
0 Add four circle primitives for the rounded corners*
1,1,$1+$1,$2,$3*
1,1,$1+$1,$4,$5*
1,1,$1+$1,$6,$7*
1,1,$1+$1,$8,$9*
0 Add four rect primitives between the rounded corners*
20,1,$1+$1,$2,$3,$4,$5,0*
20,1,$1+$1,$4,$5,$6,$7,0*
20,1,$1+$1,$6,$7,$8,$9,0*
20,1,$1+$1,$8,$9,$2,$3,0*%
G04 Aperture macros list end*
%ADD10RoundRect,0.250000X-0.350000X-0.450000X0.350000X-0.450000X0.350000X0.450000X-0.350000X0.450000X0*%
%ADD11RoundRect,0.250000X0.475000X-0.337500X0.475000X0.337500X-0.475000X0.337500X-0.475000X-0.337500X0*%
%ADD12RoundRect,0.250000X-0.450000X0.350000X-0.450000X-0.350000X0.450000X-0.350000X0.450000X0.350000X0*%
%ADD13RoundRect,0.249999X0.450001X1.425001X-0.450001X1.425001X-0.450001X-1.425001X0.450001X-1.425001X0*%
%ADD14RoundRect,0.075000X0.075000X-0.650000X0.075000X0.650000X-0.075000X0.650000X-0.075000X-0.650000X0*%
%ADD15RoundRect,0.250000X-0.337500X-0.475000X0.337500X-0.475000X0.337500X0.475000X-0.337500X0.475000X0*%
%ADD16RoundRect,0.162500X0.162500X-0.837500X0.162500X0.837500X-0.162500X0.837500X-0.162500X-0.837500X0*%
%ADD17R,1.500000X2.400000*%
%ADD18RoundRect,0.250000X0.350000X0.450000X-0.350000X0.450000X-0.350000X-0.450000X0.350000X-0.450000X0*%
%ADD19RoundRect,0.250000X-0.475000X0.337500X-0.475000X-0.337500X0.475000X-0.337500X0.475000X0.337500X0*%
G04 APERTURE END LIST*
D10*
%TO.C,R2*%
X173000000Y-80000000D03*
X175000000Y-80000000D03*
%TD*%
D11*
%TO.C,C1*%
X167250000Y-82787500D03*
X167250000Y-80712500D03*
%TD*%
D12*
%TO.C,R4*%
X168600000Y-105800000D03*
X168600000Y-107800000D03*
%TD*%
D11*
%TO.C,C2*%
X171500000Y-89287500D03*
X171500000Y-87212500D03*
%TD*%
D13*
%TO.C,R5*%
X168650000Y-94000000D03*
X162550000Y-94000000D03*
%TD*%
D12*
%TO.C,R7*%
X157600000Y-98400000D03*
X157600000Y-100400000D03*
%TD*%
D14*
%TO.C,U5*%
X164800000Y-102750000D03*
X165300000Y-102750000D03*
X165800000Y-102750000D03*
X166300000Y-102750000D03*
X166800000Y-102750000D03*
X166800000Y-98450000D03*
X166300000Y-98450000D03*
X165800000Y-98450000D03*
X165300000Y-98450000D03*
X164800000Y-98450000D03*
%TD*%
D15*
%TO.C,C3*%
X162162500Y-80600000D03*
X164237500Y-80600000D03*
%TD*%
D10*
%TO.C,R6*%
X153600000Y-98400000D03*
X155600000Y-98400000D03*
%TD*%
D11*
%TO.C,C6*%
X169500000Y-89287500D03*
X169500000Y-87212500D03*
%TD*%
%TO.C,C4*%
X168600000Y-100400000D03*
X168600000Y-98325000D03*
%TD*%
D16*
%TO.C,U4*%
X169050000Y-84460000D03*
X170000000Y-84460000D03*
X170950000Y-84460000D03*
X170950000Y-81040000D03*
X170000000Y-81040000D03*
X169050000Y-81040000D03*
%TD*%
D17*
%TO.C,L1*%
X170000000Y-76000000D03*
X164500000Y-76000000D03*
%TD*%
D18*
%TO.C,R8*%
X158200000Y-113600000D03*
X156200000Y-113600000D03*
%TD*%
D19*
%TO.C,C5*%
X159600000Y-98362500D03*
X159600000Y-100437500D03*
%TD*%
D12*
%TO.C,R9*%
X157000000Y-108800000D03*
X157000000Y-110800000D03*
%TD*%
%TO.C,R3*%
X166700000Y-105800000D03*
X166700000Y-107800000D03*
%TD*%
M02*
